<?xml version="1.0" encoding="utf-8"?>
<!-- Generator: Adobe Illustrator 24.0.0, SVG Export Plug-In . SVG Version: 6.00 Build 0)  -->
<svg version="1.1"
	 id="Ebene_1" inkscape:version="0.92.4 5da689c313, 2019-01-14" sodipodi:docname="coininfo_white.svg" xmlns:cc="http://creativecommons.org/ns#" xmlns:dc="http://purl.org/dc/elements/1.1/" xmlns:inkscape="http://www.inkscape.org/namespaces/inkscape" xmlns:rdf="http://www.w3.org/1999/02/22-rdf-syntax-ns#" xmlns:sodipodi="http://sodipodi.sourceforge.net/DTD/sodipodi-0.dtd" xmlns:svg="http://www.w3.org/2000/svg"
	 xmlns="http://www.w3.org/2000/svg" xmlns:xlink="http://www.w3.org/1999/xlink" x="0px" y="0px" viewBox="0 0 48 48"
	 style="enable-background:new 0 0 48 48;" xml:space="preserve">
<style type="text/css">
	.st0{fill:#FFFFFF;}
</style>
<sodipodi:namedview  bordercolor="#666666" borderopacity="1" gridtolerance="10" guidetolerance="10" id="namedview10" inkscape:current-layer="Ebene_1" inkscape:cx="18.005838" inkscape:cy="22.135154" inkscape:pageopacity="0" inkscape:pageshadow="2" inkscape:window-height="805" inkscape:window-maximized="0" inkscape:window-width="1313" inkscape:window-x="380" inkscape:window-y="38" inkscape:zoom="6.9532167" objecttolerance="10" pagecolor="#ffffff" showgrid="false">
	</sodipodi:namedview>
<path id="path20443" inkscape:connector-curvature="0" class="st0" d="M4.2,47.9c-1.8-0.3-3.3-1.6-4-3.4L0,43.9L0,28
	c0-14.2,0-15.9,0.1-16.4c0.1-0.4,0.6-0.9,3.5-3.9c6.6-6.8,6.9-7.1,7.6-7.4L11.9,0h11.9c11.4,0,11.9,0,12.5,0.2
	c1.6,0.6,2.6,1.6,3.2,3.2c0.2,0.6,0.2,0.7,0.3,7.8c0,4.3,0,7.2-0.1,7.2c-0.1,0-0.3-0.1-0.5-0.2c-0.7-0.3-2.7-0.6-3.6-0.6h-0.8v-6.1
	c0-4.6,0-6.2-0.1-6.3c-0.1-0.1-2.4-0.1-9.9-0.1h-9.8l0,3.8l0,3.8l-0.3,0.6c-0.3,0.7-1,1.4-1.7,1.7c-0.5,0.2-0.6,0.2-4.2,0.3l-3.7,0
	V29c0,10.4,0,13.6,0.1,13.7c0.1,0.1,2,0.1,8,0.1H21l0.4,0.7c1,1.5,2.3,2.9,3.6,4c0.3,0.2,0.6,0.5,0.6,0.5C25.6,48,4.6,48,4.2,47.9
	L4.2,47.9z M33.8,47.9c-2.5-0.3-4.5-1-6.4-2.4c-1-0.7-2.8-2.6-3.5-3.6c-1-1.6-1.7-3.3-2.1-5.2c-0.2-1.2-0.2-3.9,0-5
	c0.6-2.9,1.7-5.1,3.7-7.1c1.6-1.7,3.2-2.7,5.3-3.4c1.5-0.5,2.4-0.6,4.1-0.6c3.6,0,6.7,1.3,9.2,4c1.6,1.7,2.6,3.3,3.3,5.5
	c0.5,1.6,0.6,2.5,0.6,4.3c0,1.7-0.2,2.6-0.7,4.2c-0.7,2.1-1.6,3.7-3.2,5.3c-2,2-4.1,3.2-6.8,3.8C36.5,47.9,34.4,48,33.8,47.9z
	 M36.3,42.7c0.2-0.2,0.2-9.9,0-10c-0.1-0.1-0.6-0.1-1.5-0.1c-1,0-1.4,0-1.5,0.1c-0.2,0.2-0.2,9.9,0,10
	C33.4,42.9,36.2,42.9,36.3,42.7z M35.6,29.4c0.5-0.2,0.8-0.5,1.1-1.1c0.4-0.8,0.2-1.9-0.4-2.5c-0.8-0.7-2.1-0.7-2.9,0
	c-0.8,0.7-0.8,2.2-0.1,3.1C33.8,29.5,34.9,29.7,35.6,29.4L35.6,29.4z M8.4,37.5c-0.2-0.2-0.2-2.8,0-3.1c0.1-0.1,0.8-0.2,5.2-0.2h5.1
	l0,0.8c0,0.7,0.1,1.7,0.3,2.4l0.1,0.2h-5.2C9.2,37.7,8.6,37.7,8.4,37.5L8.4,37.5z M8.4,30.7c-0.2-0.2-0.2-2.8,0-3.1
	c0.1-0.1,0.8-0.2,5.9-0.2c3.2,0,5.7,0,5.7,0.1c0,0-0.1,0.4-0.3,0.8c-0.2,0.4-0.4,1.2-0.5,1.7L19,30.8h-5.2
	C9.2,30.8,8.6,30.8,8.4,30.7L8.4,30.7z M8.4,23.8c-0.2-0.2-0.2-2.8,0-3.1c0.1-0.2,1.1-0.2,8.7-0.2c7,0,8.5,0,8.4,0.1
	c-0.1,0.1-0.5,0.4-0.9,0.8c-0.4,0.3-1.1,1.1-1.6,1.6L22.1,24h-6.8C9.4,24,8.6,24,8.4,23.8z M20,13.5c-0.2-0.2-0.2-2.8,0-3.1
	c0.1-0.1,0.7-0.2,4.8-0.2s4.7,0,4.8,0.2c0.1,0.1,0.2,0.4,0.2,1.5c0,1.1,0,1.4-0.2,1.5c-0.1,0.1-0.7,0.2-4.8,0.2S20.2,13.7,20,13.5z"
	/>
</svg>
