<?xml version="1.0" encoding="utf-8"?>
<!-- Generator: Adobe Illustrator 24.0.0, SVG Export Plug-In . SVG Version: 6.00 Build 0)  -->
<svg version="1.1"
	 id="Ebene_1" inkscape:version="0.92.4 5da689c313, 2019-01-14" sodipodi:docname="home_white.svg" xmlns:cc="http://creativecommons.org/ns#" xmlns:dc="http://purl.org/dc/elements/1.1/" xmlns:inkscape="http://www.inkscape.org/namespaces/inkscape" xmlns:rdf="http://www.w3.org/1999/02/22-rdf-syntax-ns#" xmlns:sodipodi="http://sodipodi.sourceforge.net/DTD/sodipodi-0.dtd" xmlns:svg="http://www.w3.org/2000/svg"
	 xmlns="http://www.w3.org/2000/svg" xmlns:xlink="http://www.w3.org/1999/xlink" x="0px" y="0px" viewBox="0 0 48 48"
	 style="enable-background:new 0 0 48 48;" xml:space="preserve">
<style type="text/css">
	.st0{fill:#FFFFFF;}
</style>
<sodipodi:namedview  bordercolor="#666666" borderopacity="1" gridtolerance="10" guidetolerance="10" id="namedview10" inkscape:current-layer="Ebene_1" inkscape:cx="16.376447" inkscape:cy="25.20217" inkscape:pageopacity="0" inkscape:pageshadow="2" inkscape:window-height="805" inkscape:window-maximized="0" inkscape:window-width="1313" inkscape:window-x="171" inkscape:window-y="90" inkscape:zoom="9.8333333" objecttolerance="10" pagecolor="#ffffff" showgrid="false">
	</sodipodi:namedview>
<path id="path4768" inkscape:connector-curvature="0" class="st0" d="M8.6,42.9c-0.1,0-0.2-0.1-0.4-0.1c-0.4-0.1-1-0.7-1.2-1.1
	C6.9,41.5,6.9,40,6.9,34v-7.4l8.5-7c4.7-3.8,8.5-7,8.6-7c0.1,0,4,3.1,8.7,7l8.5,7V34c0,5,0,7.5-0.1,7.7c-0.1,0.4-0.6,0.8-1,1.1
	c-0.3,0.2-0.9,0.2-6.2,0.2l-5.9,0v-5.8v-5.8H24h-3.9v5.7V43l-5.7,0C11.3,43,8.6,43,8.6,42.9L8.6,42.9z M2.3,27.1
	C2,26.9,0.1,24.6,0,24.3c0-0.1,0-0.4,0.1-0.6c0.1-0.2,3.6-3.2,10.9-9.3c5.9-5,11-9.1,11.2-9.3c1-0.6,2.6-0.6,3.6,0.1
	c0.3,0.2,2.1,1.6,4,3.2c1.9,1.6,3.5,2.9,3.6,3c0.1,0.1,0.2-0.4,0.2-3c0-2.9,0-3.1,0.2-3.3L34,4.9l3.3,0l3.3,0l0.3,0.3l0.3,0.3l0,6.3
	l0,6.3l3.3,2.8c3.5,2.9,3.7,3.1,3.5,3.7c-0.1,0.3-2,2.5-2.3,2.7c-0.4,0.2-0.8,0.2-1.4-0.4c-0.3-0.3-5-4.2-10.4-8.6
	c-5.4-4.5-9.8-8.2-9.9-8.2c-0.1,0-4.6,3.7-9.9,8.2c-5.4,4.5-10,8.4-10.4,8.6C3.1,27.2,2.7,27.3,2.3,27.1L2.3,27.1z"/>
</svg>
