<?xml version="1.0" encoding="utf-8"?>
<!-- Generator: Adobe Illustrator 24.0.0, SVG Export Plug-In . SVG Version: 6.00 Build 0)  -->
<svg version="1.1" id="Ebene_1" xmlns="http://www.w3.org/2000/svg" xmlns:xlink="http://www.w3.org/1999/xlink" x="0px" y="0px"
	 viewBox="0 0 440.8 145.7" style="enable-background:new 0 0 440.8 145.7;" xml:space="preserve">
<style type="text/css">
	.st0{fill:#E6E6E6;}
</style>
<path class="st0" d="M78.2,37.1c0.4,0.3,0.8,0.6,1.2,1c1,1,1.9,2.1,2.9,3.1c0.2,0.2,0.4,0.3,0.6,0.5c2.2,1.4,2.4,0.8,4.3-0.5
	c0.8-0.5,1.5-1.2,2.2-1.8c0.2-0.1,0.4-0.2,0.6-0.3c0.1,0.1,0.1,0.1,0.2,0.2c-0.2,0.3-0.4,0.7-0.7,0.9c-0.9,0.8-1.8,1.6-2.6,2.4
	c-1,0.9-1.2,1.3-0.5,2.5c0.9,1.5,2,2.9,3,4.3c0.2,0.2,0.4,0.5,0.6,0.7c-0.1,0.1-0.1,0.1-0.2,0.2c-0.6-0.6-1.2-1.2-1.8-1.8
	c-0.5-0.5-1-1.1-1.5-1.7c-0.2-0.2-0.5-0.2-0.7-0.3c-0.1,0.2-0.2,0.5-0.1,0.7c0.6,2.1,1.3,4.2,1.9,6.4c0.8,2.7,1.6,5.4,2.4,8
	c0.6,1.9,1.2,3.8,1.8,5.7c0.8,2.5,1.5,5,2.3,7.6c0.1,0.2,0.3,0.4,0.4,0.6c0.2-0.2,0.4-0.4,0.5-0.6c0.8-2.5,1.5-4.9,2.2-7.4
	c1-3.5,2.1-7,3.1-10.5c0.8-2.6,1.5-5.3,2.3-7.9c0.5-1.8,1.1-3.6,1.7-5.4c0.1-0.3,0.6-0.6,0.9-0.6c1.9-0.1,3.8,0,5.8,0
	c0.6,0,0.8,0.4,0.8,0.9c0.2,2.5,0.4,5,0.6,7.5c0.4,5.2,0.9,10.3,1.3,15.5c0.5,5.6,0.9,11.3,1.4,16.9c0.1,0.6-0.2,0.9-0.8,0.9
	c-1.1,0-2.2,0-3.3,0c-0.6,0-1-0.4-1.1-1.1c-0.1-1.2-0.2-2.4-0.3-3.5c-0.3-3.1-0.5-6.2-0.8-9.3c-0.2-2.8-0.4-5.5-0.6-8.3
	c-0.2-2.7-0.4-5.4-0.7-8.2c0-0.2,0-0.4-0.1-0.5c-0.1-0.2-0.3-0.3-0.4-0.4c-0.1,0.1-0.3,0.3-0.4,0.4c-0.8,2.8-1.6,5.5-2.4,8.3
	c-0.6,2.1-1.3,4.3-1.9,6.4c-0.5,1.7-1,3.4-1.5,5c-0.7,2.4-1.5,4.8-2.2,7.2c-0.3,1-0.6,2.1-0.9,3.1c-0.2,0.6-0.6,0.9-1.2,0.9
	c-1.2,0-2.5,0-3.7,0c-0.7,0-1.1-0.3-1.3-1c-1-3.2-2-6.5-3-9.7c-0.9-3.1-1.9-6.2-2.8-9.3c-0.8-2.6-1.6-5.2-2.4-7.8
	c-0.3-0.9-0.5-1.8-0.8-2.7c0-0.1,0-0.3-0.1-0.3c-0.2-0.2-0.4-0.4-0.6-0.6c-0.1,0.2-0.4,0.4-0.4,0.7c-0.1,1.2-0.1,2.3-0.2,3.5
	c-0.4,5.4-0.8,10.8-1.2,16.1c-0.2,3.2-0.4,6.5-0.6,9.7c-0.1,1.2-0.2,1.3-1.3,1.3c-1,0-2,0-3,0c-0.8,0-1-0.2-0.9-1
	c0.2-2.4,0.4-4.8,0.6-7.1c0.3-3.6,0.5-7.2,0.8-10.7c0.3-3.5,0.5-6.9,0.8-10.4c0.1-1,0.1-2,0.2-3c0.2-2.9,0.4-5.8,0.7-8.6
	c0.1-0.9,0.2-1,1.1-1c0.9,0,1.9,0,2.8,0c0.4,0,0.8-0.3,1.2-0.4c-0.2-0.4-0.2-0.8-0.5-1.1c-1-1.3-2.1-2.5-3.1-3.7
	c-0.1-0.2-0.2-0.4-0.4-0.6C78.1,37.2,78.1,37.2,78.2,37.1z"/>
<path class="st0" d="M188.3,63.1c0.3-0.1,0.7-0.2,1-0.2c1.8-0.1,3.6-0.2,5.4-0.3c1-0.1,1.9-0.1,2.9-0.2c0.9-0.1,0.9-0.2,0.5-1
	c-0.1-0.1-0.1-0.3-0.3-0.6c0.5,0.2,0.9,0.3,1.3,0.4c0.5,0.2,0.8,0.1,1-0.4c0.1-0.6,0.3-1.2,0.3-1.8c0.1-3,0.1-6,0.1-9
	c0-4.2,3.3-6.7,6.9-6.7c2.8,0,5.6,0.2,8.3,0.3c3.2,0.1,6.3,0.3,9.5,0.5c1.3,0.1,1.4,0.2,1.4,1.5c0,0.6,0,1.2,0,1.8
	c0,0.7-0.3,0.9-1,0.9c-2,0-3.9,0-5.9,0c-3.8,0-7.5,0-11.3,0c-1.6,0-2.6,0.9-2.7,2.5c0,2.9,0.1,5.9,0.1,8.8c0,0.3,0,0.6-0.1,0.9
	c-0.1,0.9,0.1,1.3,1,1.3c2.7,0.1,5.4,0.2,8.1,0.3c2.7,0.1,5.4,0.2,8.1,0.3c1,0,1.2,0.3,1.1,1.3c0,0.6,0,1.1,0,1.7
	c0,0.9-0.2,1.1-1.1,1.2c-1.3,0.1-2.6,0.1-3.9,0.1c-3.5,0.1-7,0.2-10.6,0.3c-0.7,0-1.3,0.1-2,0.2c-0.6,0.1-0.9,0.4-0.9,1
	c0,3.1,0,6.3,0,9.4c0,2,0.9,2.8,2.9,2.8c5.5,0,11.1,0,16.6,0c1.3,0,1.4,0.1,1.4,1.4c0,0.5,0,1.1,0,1.6c0,0.8-0.2,1-1,1
	c-2.1,0.1-4.2,0.3-6.3,0.4c-3.3,0.2-6.6,0.4-9.9,0.5c-1.4,0-2.9-0.1-4.3-0.3c-2.2-0.4-4.1-2.4-4.4-4.9c-0.1-0.8-0.2-1.6-0.2-2.4
	c-0.1-3.5-0.1-6.9-0.2-10.4c0-0.5-0.2-1.1-0.3-1.6c-0.1-0.5-0.4-0.6-0.8-0.4c-0.2,0.1-0.5,0.1-0.8,0.1c-0.1-1-0.1-1.1-1.1-1.2
	c-1-0.1-2-0.2-3-0.2c-1.9-0.1-3.8-0.2-5.8-0.3c-0.1,0-0.3,0-0.4-0.1C188.3,63.2,188.3,63.1,188.3,63.1z"/>
<path class="st0" d="M283.5,47.8c-2.9,0-5.8,0-8.7,0c-2,0-3.4,1.1-3.8,3.1c-0.2,0.9-0.3,1.9-0.3,2.8c0,1.3,0,2.7,0,4
	c0,0.1,0,0.1,0,0.2c0.4,2.4,1.1,3.5,3.7,3.7c2.9,0.2,5.7,0.1,8.6,0.1c1.2,0,2.4,0.1,3.7,0.3c2.4,0.4,4.2,1.7,5.3,3.8
	c0.8,1.6,1.2,3.3,1.3,5.1c0.1,1.9,0.2,3.8,0,5.6c-0.2,2.6-1,5-3.2,6.7c-1.4,1.1-3.1,1.6-4.8,1.8c-3,0.4-6.1,0.2-9.1-0.1
	c-2-0.2-4-0.3-5.9-0.6c-0.9-0.1-1.8-0.3-2.7-0.5c-0.5-0.1-0.7-0.4-0.7-0.8c0-0.9,0-1.7,0-2.6c0-0.6,0.4-0.7,0.9-0.7
	c2.1,0.2,4.2,0.4,6.3,0.5c3.4,0.1,6.8,0.4,10.1-0.2c0.9-0.2,1.9-0.6,2.7-1.2c1-0.7,1.3-1.8,1.3-3c0-1.8,0-3.5-0.1-5.3
	c-0.2-2.4-1.7-3.8-4.2-3.8c-3,0-6,0.1-9-0.1c-1.4-0.1-2.9-0.4-4.3-0.8c-3.2-1.1-4.6-3.7-4.8-6.9c-0.2-2.8-0.2-5.6,0-8.4
	c0.1-2.1,0.9-4,2.5-5.4c1.1-1,2.4-1.5,3.8-1.9c3-0.9,6-0.7,9-0.4c3.1,0.3,6.2,0.7,9.2,1c1.4,0.2,1.5,0.4,1.5,1.7c0,0.6,0,1.2,0,1.7
	c0,0.6-0.2,0.9-0.9,0.8C288.5,48.1,286,48,283.5,47.8C283.5,47.9,283.5,47.8,283.5,47.8z"/>
<path class="st0" d="M250.1,47.7c-2.5,0-5.1,0-7.6,0c-1.4,0-2.7,0.3-3.7,1.5c-0.8,1-1,2.1-1,3.3c0,1.8,0,3.5,0.1,5.3
	c0,0.3,0,0.5,0.1,0.8c0.5,2.1,1.2,2.7,3.7,3.1c1.2,0.2,2.5,0.1,3.7,0.1c2,0,4,0,6,0c1.7,0,3.3,0.3,4.8,1.1c2.1,1.1,3.4,2.9,3.8,5.2
	c0.7,3.6,0.8,7.3,0,10.9c-0.5,2.5-2,4.2-4.3,5.2c-2.5,1.1-5.1,1.3-7.8,1.1c-3.3-0.2-6.7-0.5-10-0.8c-1.1-0.1-2.1-0.3-3.2-0.5
	c-0.5-0.1-0.7-0.3-0.7-0.8c0-0.8,0-1.6,0-2.4c0-0.7,0.3-0.9,1-0.9c4.6,0.4,9.3,0.7,13.9,0.5c1.6-0.1,3.3-0.2,4.6-1.2
	c1-0.7,1.6-1.6,1.7-2.8c0.1-1.8,0.1-3.7,0-5.6c-0.1-0.9-0.4-1.8-0.9-2.5c-0.7-1.1-1.9-1.5-3.2-1.5c-2.8,0-5.7,0-8.5,0
	c-2,0-3.9-0.3-5.7-1.2c-1.8-0.9-3.1-2.4-3.6-4.4c-1-3.9-0.8-7.9-0.2-11.8c0.5-3.4,2.9-5.2,6.1-6.2c2.9-0.9,5.8-0.7,8.8-0.5
	c3.2,0.3,6.4,0.7,9.7,1.1c1.2,0.1,1.3,0.3,1.3,1.5c0,0.6,0,1.2,0,1.8c0,0.7-0.3,0.9-1,0.9C255.3,48.1,252.7,48,250.1,47.7
	C250.1,47.8,250.1,47.8,250.1,47.7z"/>
<path class="st0" d="M346.6,79.4c0.3-5.3,0.6-10.7,1-16c0.2-2.5,0.5-5,1-7.4c0.3-1.3,1-2.6,1.8-3.8c1.6-2.4,4-4,6.5-5.4
	c1.8-0.9,3.7-1.6,5.6-2.4c0.8-0.3,1.6-0.6,2.5-0.9c0.2-0.1,0.4-0.1,0.6-0.2c0.7-0.1,1,0.2,0.7,0.9c-1.3,3.4-2.5,6.9-3.9,10.2
	c-1.6,3.9-3.4,7.8-5.2,11.7c-1,2.3-2,4.6-3.2,6.8c-1.7,3.2-3.6,6.4-5.4,9.5c-0.3,0.5-0.7,0.9-1.1,1.3c-0.2,0.2-0.4,0.2-0.6,0.3
	c-0.1-0.2-0.3-0.5-0.3-0.7C346.7,82.1,346.7,80.8,346.6,79.4C346.7,79.4,346.6,79.4,346.6,79.4z"/>
<path class="st0" d="M343.8,78.1c0,1.2,0,3.4,0,5.5c0,0.2-0.1,0.4-0.2,0.6c-0.2-0.1-0.5-0.1-0.6-0.3c-1-1.3-2-2.7-2.8-4.1
	c-1.6-2.8-3.2-5.6-4.6-8.5c-1.5-3.1-2.9-6.2-4.3-9.3c-1-2.3-2-4.5-2.9-6.8c-0.9-2.1-1.7-4.3-2.5-6.4c-0.5-1.3-1-2.7-1.5-4
	c-0.1-0.2-0.1-0.4-0.2-0.6c-0.1-0.6,0.1-0.9,0.7-0.7c0.7,0.2,1.5,0.4,2.2,0.7c2.3,0.9,4.5,1.8,6.7,2.9c2.6,1.3,4.8,3,6.5,5.4
	c1.3,1.8,1.7,3.8,1.9,5.9c0.4,3.6,0.8,7.2,1.1,10.8C343.6,71.8,343.7,74.5,343.8,78.1z"/>
<path class="st0" d="M150.5,66.6c0,5.8,0,11.6,0,17.4c0,0.8-0.2,1-1,1c-1.1,0-2.1,0-3.2,0c-0.8,0-1-0.2-1-1c0-1.8,0-3.5,0-5.3
	c0-9.8,0-19.6,0-29.4c0-1-0.2-1.2-1.3-1.2c-3.2,0-6.4,0-9.7,0c-1.1,0-1.3-0.2-1.3-1.2c0-0.9,0-1.8,0-2.6c0-0.8,0.3-1,1.2-1
	c6.8,0,13.7,0,20.5,0c2.3,0,4.7,0,7,0c0.9,0,1.1,0.2,1.1,1.1c0,0.9,0,1.7,0,2.6c0,1-0.2,1.2-1.2,1.2c-3.3,0-6.6,0-9.9,0
	c-1.1,0-1.3,0.2-1.3,1.3C150.5,55.1,150.5,60.8,150.5,66.6C150.5,66.6,150.5,66.6,150.5,66.6z"/>
<path class="st0" d="M30.5,61.3c0-5.7,0-11.3,0-17c0-1,0.2-1.1,1.1-1.1c1,0,2,0,3.1,0c0.8,0,1,0.2,1,1c0,2.6,0,5.1,0,7.7
	c0,8.4,0,16.9,0,25.3c0,1.7,0.8,2.6,2.5,2.8c0.7,0.1,1.4,0.1,2.1,0.1c3.9,0,7.7,0,11.6-0.1c1.1,0,2.3,0,3.4,0.1
	c0.5,0,0.8,0.2,0.8,0.8c0,1,0,2.1,0,3.1c0,0.8-0.2,0.9-0.9,0.9c-5,0-9.9,0-14.9,0c-1.7,0-3.4-0.1-5.1-0.4c-2.3-0.5-3.9-1.7-4.4-4.5
	c-0.2-1.1-0.3-2.3-0.3-3.4C30.5,71.5,30.5,66.4,30.5,61.3C30.5,61.3,30.5,61.3,30.5,61.3z"/>
<path class="st0" d="M168.8,61.2c0-5.6,0-11.2,0-16.7c0-1.2,0.2-1.3,1.3-1.3c0.9,0,1.8,0,2.6,0c1,0,1.2,0.2,1.2,1.2
	c0,3.6,0,7.3,0,10.9c0,7.2,0,14.4,0,21.7c0,2.2,0.7,3,2.9,3.1c4.8,0.1,9.6,0.1,14.4,0.1c0.7,0,1.4,0,2.2,0c0.6,0,0.9,0.3,0.9,1
	c0,1,0,2,0,3c0,0.7-0.4,0.9-0.9,0.9c-1.2,0-2.5,0-3.7,0c-2.7,0-5.3,0-8,0c-2.5,0-5,0-7.6-0.2c-1.7-0.1-3.2-0.8-4.2-2.3
	c-0.5-0.7-0.8-1.6-1-2.4c-0.2-1.2-0.3-2.3-0.3-3.5C168.7,71.3,168.8,66.3,168.8,61.2C168.8,61.2,168.8,61.2,168.8,61.2z"/>
<path class="st0" d="M62.4,64c0-5.5,0-10.9,0-16.4c0-1.2,0-2.4,0-3.5c0-0.7,0.3-1,1-1c1.1,0,2.2,0,3.3,0c0.8,0,1,0.3,1,1
	c0,1.3,0,2.6,0,4c0,11.9,0,23.8,0,35.6c0,1-0.2,1.2-1.2,1.2c-1,0-1.9,0-2.9,0c-0.9,0-1.1-0.2-1.1-1.2C62.4,77.2,62.4,70.6,62.4,64
	C62.4,64,62.4,64,62.4,64z"/>
<path class="st0" d="M127.4,64c0,6.4,0,12.9,0,19.3c0,0.2,0,0.4,0,0.6c0,0.8-0.3,1-1,1c-1,0-2,0-3.1,0c-0.8,0-1-0.2-1-1
	c0-1.1,0-2.3,0-3.4c0-5,0-9.9,0-14.9c0-6.3,0-12.6,0-18.9c0-0.9,0-1.8,0-2.6c0-0.8,0.2-1,1-1.1c0.9,0,1.9,0,2.8,0
	c1.1,0,1.3,0.1,1.3,1.2c0,6.4,0,12.7,0,19.1C127.4,63.6,127.4,63.8,127.4,64C127.4,64,127.4,64,127.4,64z"/>
<path class="st0" d="M377.6,64c0,6.6,0,13.2,0,19.8c0,0.8-0.1,1-0.9,1c-1,0-2,0.1-3.1,0.1c-0.9,0-1-0.2-1.1-1.1c0-1,0-2,0-3
	c0-12.2,0-24.4,0-36.5c0-1.1,0.1-1.2,1.2-1.2c0.9,0,1.9,0,2.8,0c0.8,0,1,0.2,1,1c0,1.2,0,2.5,0,3.7C377.6,53.2,377.6,58.6,377.6,64
	C377.6,64,377.6,64,377.6,64z"/>
<path class="st0" d="M240.6,99.4c0.6,0,1.3,0,1.9,0c0.2,0,0.4,0.2,0.6,0.2c-0.1,0.2-0.1,0.4-0.3,0.5c-0.4,0.3-0.5,0.7-0.3,1.2
	c0.3,0.9,0,1.7-0.4,2.5c-0.2,0.4-0.8,0.7-1.3,0.9c-0.7,0.2-1.4,0.1-2.1,0.1c-0.2,0-0.5-0.1-0.6,0c-0.2,0.2-0.4,0.4-0.6,0.6
	c0.2,0.2,0.4,0.5,0.6,0.5c0.9,0.1,1.9,0.1,2.8,0c0.6,0,1.2,0.1,1.5,0.7c0.6,0.9,0.6,2.9-0.2,3.6c-0.3,0.3-0.9,0.5-1.4,0.5
	c-0.7,0.1-1.4,0-2.1,0c-2.3,0-2.9-1.9-2.3-3.5c0.2-0.5,0.2-0.9,0-1.4c-0.1-0.3-0.1-0.8,0.1-1.1c0.3-0.6,0.3-1,0-1.6
	c-0.9-1.7,0.4-3.8,2.3-3.9C239.5,99.4,240,99.4,240.6,99.4C240.6,99.4,240.6,99.4,240.6,99.4z M239.5,106.8
	C239.5,106.8,239.5,106.8,239.5,106.8c-0.3,0-0.5,0-0.8,0c-1.2,0-1.5,0.2-1.5,1.4c0,0.2,0,0.3,0,0.5c0.1,0.8,0.5,1.2,1.2,1.2
	c0.6,0,1.2,0,1.9,0c1.1,0,1.6-0.4,1.6-1.5c0-1.2-0.4-1.6-1.5-1.6C240.2,106.8,239.8,106.8,239.5,106.8z M239.5,103.9
	c0.3,0,0.7-0.1,1.1-0.1c0.7-0.1,1.1-0.8,1.2-1.5c0.1-1-0.2-1.6-1-1.8c-0.6-0.1-1.3-0.1-2-0.1c-0.7,0-1.1,0.4-1.3,1.1
	C237,102.8,237.9,103.9,239.5,103.9z"/>
<path class="st0" d="M120.5,97.5c-0.5,0-0.9-0.1-1.4,0c-0.7,0.1-1,0.6-0.6,1.2c0.9,1.4,1.9,2.7,2.9,4c0.1,0.1,0.2,0.3,0.3,0.4
	c0.4,0.6,0.8,0.6,1.3,0.1c0,0,0.1-0.1,0.1-0.2c0.2-0.1,0.5-0.3,0.7-0.4c0,0.3,0,0.6-0.1,0.9c-0.1,0.2-0.2,0.4-0.4,0.6
	c-0.4,0.4-0.3,0.8,0,1.3c0.2,0.3,0.5,0.5,0.6,0.8c0.1,0.2,0,0.4,0,0.6c-0.2,0-0.5,0.1-0.6,0c-0.3-0.2-0.5-0.5-0.7-0.8
	c-0.3-0.4-0.7-0.5-1.1-0.1c-0.3,0.3-0.7,0.6-1,0.8c-1,0.6-2.5,0.3-3.4-0.7c-0.9-1-1.1-2.5-0.3-3.5c0.3-0.4,0.7-0.8,1.1-1.1
	c0.6-0.5,0.7-0.9,0.2-1.6c-0.2-0.3-0.5-0.6-0.6-1c-0.4-0.9,0.2-2.1,1.2-2.2c1-0.1,2.1,0,3.1,0c0.2,0,0.3,0.3,0.5,0.5
	c-0.2,0.1-0.4,0.3-0.6,0.3C121.3,97.5,120.9,97.4,120.5,97.5C120.5,97.5,120.5,97.5,120.5,97.5z M119.7,106.1
	c0.4-0.3,0.9-0.6,1.4-1.1c0.4-0.3,0.4-0.8,0-1.2c-0.4-0.4-0.7-0.8-1.1-1.3c-0.7-1-1-1.1-1.9-0.2c-0.1,0.1-0.2,0.2-0.3,0.3
	c-0.5,0.5-0.9,1.1-0.5,1.9C117.7,105.5,118.4,106,119.7,106.1z"/>
<path class="st0" d="M189.2,99.7c0.7,0.1,2.2,0,2.9-0.3c0.8-0.2,1.6-0.2,2.2,0.4c0.7,0.6,1.2,0.5,1.9,0.1c0.8-0.5,1.7-0.8,2.7-0.4
	c1.1,0.4,1.6,1.2,1.7,2.3c0,1.5,0,3,0,4.5c0,0.2-0.3,0.4-0.4,0.6c-0.1-0.2-0.4-0.4-0.4-0.6c0-1.3,0-2.6,0-3.9c0-1.6-1-2.4-2.6-1.9
	c-0.3,0.1-0.5,0.1-0.8,0.2c-0.6,0.2-0.9,0.6-1,1.2c0,1.3,0,2.5,0,3.8c0,0.2,0.1,0.5,0,0.6c-0.1,0.2-0.4,0.4-0.5,0.6
	c-0.1-0.2-0.3-0.4-0.4-0.7c0-1.3,0-2.5,0-3.8c0-0.2,0-0.4,0-0.6c0-0.7-0.3-1.2-1-1.4c-1-0.3-1.9,0-2.7,0.6c-0.3,0.2-0.5,0.8-0.5,1.2
	c-0.1,1.3,0,2.5,0,3.8c0,0.4,0.1,0.8-0.5,0.8c-0.5,0-0.5-0.4-0.5-0.8c0-1.9,0-3.7,0-5.6C189.1,100.2,189.1,99.9,189.2,99.7z"/>
<path class="st0" d="M235,106.5c-0.1,0.1-0.2,0.3-0.3,0.3c-0.2,0-0.6-0.1-0.7-0.3c-0.3-0.5-0.4-1-0.6-1.5c-0.2-0.7-0.6-1.1-1.3-1.1
	c-0.9,0-1.7,0-2.6,0c-0.5,0-0.9,0.2-1.1,0.7c-0.2,0.5-0.4,1-0.5,1.5c-0.1,0.5-0.4,0.7-0.9,0.6c-0.5-0.2-0.3-0.6-0.2-0.9
	c1.1-3,2.2-5.9,3.4-8.9c0.1-0.2,0.4-0.5,0.6-0.4c0.3,0.1,0.6,0.3,0.8,0.6c0.4,0.9,0.7,1.8,1,2.7c0.8,2.1,1.5,4.2,2.3,6.3
	C234.9,106.3,234.9,106.4,235,106.5z M230.9,103C230.9,103,230.9,103,230.9,103c0.2,0,0.4,0,0.6,0c1.1,0,1.2-0.3,0.8-1.3
	c-0.3-0.7-0.5-1.5-0.8-2.3c-0.1-0.3-0.4-0.5-0.5-0.7c-0.2,0.2-0.5,0.4-0.6,0.7c-0.3,0.7-0.5,1.4-0.8,2.1c-0.5,1.3-0.4,1.5,1,1.5
	C230.7,103,230.8,103,230.9,103z"/>
<path class="st0" d="M44.7,101.7c0-1.4,0-2.8,0-4.2c0-0.9,0.2-1,1.1-1.1c1.2,0,2.3,0,3.5,0c1.2,0,2.1,0.8,2.2,2.1c0.1,1,0.2,2-0.3,3
	c-0.4,0.7-1,1-1.7,1c-0.7,0-1.3-0.1-2-0.1c-0.3,0-0.6,0-1-0.1c-0.5,0-0.8,0.2-0.8,0.8c0,1,0,2,0,3c0,0.4-0.1,0.8-0.6,0.6
	c-0.2,0-0.4-0.4-0.4-0.7C44.7,104.7,44.7,103.2,44.7,101.7C44.7,101.7,44.7,101.7,44.7,101.7z M45.7,99.5c0,0.4,0,0.8,0,1.2
	c0,0.5,0.2,0.9,0.8,0.9c0.9,0,1.9,0.1,2.8,0c0.8-0.1,1.2-0.6,1.3-1.5c0-1,0.2-2-0.9-2.6c-0.2-0.1-0.5-0.1-0.7-0.1
	c-0.6,0-1.2,0-1.8,0c-1.4,0-1.4,0.1-1.4,1.5C45.7,99.1,45.7,99.3,45.7,99.5z"/>
<path class="st0" d="M133.6,97.5c-0.5,0-1,0-1.5,0c-0.8,0-1.2,0.4-1.2,1.1c0,0.5,0,1,0,1.5c0,0.8,0.3,1.1,1.1,1.2c0.8,0,1.6,0,2.4,0
	c0.2,0,0.4,0,0.6,0c0.2,0.1,0.3,0.3,0.4,0.4c-0.2,0.1-0.3,0.3-0.5,0.3c-0.9,0.1-1.9,0.1-2.8,0.1c-0.9,0-1.2,0.3-1.2,1.2
	c0,0.5,0,0.9,0.1,1.4c0.1,0.9,0.4,1.2,1.3,1.2c1,0,1.9,0,2.9,0c0.1,0,0.3,0,0.4,0c0.2,0.1,0.3,0.3,0.5,0.4c-0.2,0.1-0.3,0.3-0.5,0.3
	c-0.9,0.1-1.7,0.2-2.6,0.2c-0.5,0-0.9,0-1.4,0c-1-0.1-1.4-0.5-1.6-1.4c-0.1-0.3-0.1-0.6-0.1-0.9c0-2.1,0-4.2,0-6.3
	c0-1.2,0.6-1.8,1.8-1.9c1.2,0,2.5,0.1,3.7,0.1c0.2,0,0.4,0.3,0.6,0.4c-0.2,0.1-0.4,0.4-0.6,0.4C134.8,97.5,134.2,97.4,133.6,97.5
	C133.6,97.4,133.6,97.4,133.6,97.5z"/>
<path class="st0" d="M105.3,103.2c0-0.5,0-1,0-1.5c0.1-1.4,0.9-2.3,2.3-2.4c0.7-0.1,1.5-0.1,2.2,0c0.8,0.1,1.5,0.7,1.6,1.5
	c0.2,0.9,0.3,1.8-0.6,2.4c-0.3,0.2-0.6,0.3-0.9,0.4c-0.8,0.1-1.6,0-2.4,0c-0.5,0-1.1,0-1.2,0.7c-0.1,0.6,0.4,1.5,1,1.6
	c0.9,0.1,1.7,0.1,2.6,0.1c0.4,0,1-0.3,1.1,0.3c0.1,0.6-0.6,0.6-1,0.6c-1,0-2,0.1-3-0.1c-1-0.2-1.4-1.1-1.6-2.1
	C105.2,104.3,105.3,103.8,105.3,103.2C105.3,103.2,105.3,103.2,105.3,103.2z M108.2,102.8C108.2,102.8,108.2,102.8,108.2,102.8
	c0.4,0,0.8,0,1.2,0c0.5,0,0.9-0.3,1-0.9c0.1-0.5,0-1-0.5-1.3c-0.8-0.5-2.5-0.5-3.1,0.1c-0.3,0.4-0.6,1-0.5,1.5
	c0,0.6,0.6,0.5,1.1,0.5C107.7,102.8,107.9,102.8,108.2,102.8z"/>
<path class="st0" d="M154.2,103.7c-0.3,0-0.6,0-0.9,0c-0.5,0-1,0-1.1,0.6c-0.1,0.5,0.3,1.4,0.7,1.5c0.4,0.1,0.9,0.2,1.3,0.2
	c0.8,0,1.5,0,2.3,0c0.2,0,0.3,0.2,0.5,0.3c-0.1,0.1-0.2,0.4-0.4,0.4c-1.4,0.4-2.7,0.5-4.1,0c-0.7-0.2-1.1-0.9-1.2-1.7
	c-0.1-1.2-0.1-2.5,0-3.7c0.1-1.2,0.9-1.9,2-2c0.8-0.1,1.6-0.1,2.4,0c1.1,0.2,1.7,1.1,1.6,2.3c-0.1,1.2-0.6,1.8-1.8,1.9
	C155.1,103.7,154.6,103.7,154.2,103.7C154.2,103.7,154.2,103.7,154.2,103.7z M154.2,102.7C154.2,102.7,154.2,102.8,154.2,102.7
	c0.4,0,0.8,0,1.2,0c0.7-0.1,1.1-0.6,1-1.3c-0.1-0.7-0.7-1.1-1.3-1.1c-0.6,0-1.2,0-1.7,0.1c-0.8,0.2-1.3,0.9-1.2,1.7
	c0,0.2,0.4,0.6,0.6,0.6C153.2,102.8,153.7,102.7,154.2,102.7z"/>
<path class="st0" d="M176.5,103.7c0,0.8,0,1.6,0,2.4c0,0.6-0.3,0.8-0.8,0.4c-0.5-0.4-0.9-0.3-1.5,0c-0.6,0.3-1.4,0.4-2.1,0.5
	c-1,0-1.8-0.8-1.8-1.8c0-0.9-0.1-1.9,0.9-2.4c0.3-0.2,0.6-0.3,1-0.3c0.7,0,1.5,0,2.2,0c0.4,0,0.9,0.1,1.1-0.5
	c0.1-0.6,0.1-1.2-0.5-1.5c-0.3-0.2-0.7-0.3-1.1-0.3c-0.8,0-1.6,0.1-2.4,0.1c-0.2,0-0.3-0.1-0.5-0.2c0.1-0.2,0.2-0.4,0.3-0.5
	c0.7-0.4,3.7-0.3,4.4,0.1c0.6,0.4,0.9,1,0.9,1.7C176.6,102.2,176.6,103,176.5,103.7C176.6,103.7,176.5,103.7,176.5,103.7z
	 M173.8,103.3C173.8,103.3,173.8,103.2,173.8,103.3c-0.6,0-1.2,0-1.7,0.2c-0.7,0.2-0.9,0.9-0.8,1.7c0.2,0.7,0.7,0.9,1.3,0.8
	c0.7-0.1,1.4-0.3,2.1-0.5c0.7-0.2,0.9-0.8,0.8-1.6c-0.1-0.7-0.6-0.7-1.2-0.6C174.2,103.3,174,103.3,173.8,103.3z"/>
<path class="st0" d="M76.9,106c0.6,0,1.1,0,1.7,0c0.1,0,0.3,0.1,0.3,0.3c0,0.1-0.1,0.3-0.2,0.3c-0.8,0.6-4,0.4-4.8-0.3
	c-0.8-0.7-0.7-1.6-0.7-2.5c-0.1-0.8,0.1-1.6,0.1-2.3c0-1.2,1.1-2,1.9-2.1c0.8-0.1,1.7-0.2,2.5,0c1.3,0.3,1.7,1.1,1.6,2.7
	c0,1-0.7,1.6-1.8,1.6c-0.7,0-1.4,0-2.1,0c-0.5,0-1-0.1-1.2,0.5c-0.2,0.5,0.1,1.4,0.6,1.6c0.5,0.2,1.1,0.2,1.6,0.3
	C76.6,106.1,76.8,106.1,76.9,106C76.9,106.1,76.9,106.1,76.9,106z M76.2,102.8C76.2,102.8,76.2,102.8,76.2,102.8c0.4,0,0.7,0,1.1,0
	c0.6,0,1-0.3,1.1-0.8c0.1-0.6-0.1-1.1-0.6-1.4c-1-0.5-2.1-0.4-3,0.2c-0.5,0.3-0.7,0.9-0.5,1.5c0.1,0.6,0.7,0.5,1.1,0.5
	C75.6,102.8,75.9,102.8,76.2,102.8z"/>
<path class="st0" d="M248.1,106.1c0.4,0,0.9-0.1,1.3-0.1c0.2,0,0.3,0.2,0.5,0.3c-0.1,0.1-0.2,0.4-0.4,0.4c-1.3,0.4-2.6,0.5-3.9,0.1
	c-0.5-0.2-1-0.7-1.1-1.1c-0.6-1.6-0.6-3.3,0-5c0.3-0.8,0.9-1.2,1.7-1.3c0.9-0.1,1.8-0.1,2.6,0c1,0.1,1.7,1.3,1.6,2.6
	c-0.1,0.9-0.7,1.6-1.8,1.6c-0.8,0-1.5,0-2.3,0c-0.5,0-1-0.1-1.2,0.6c-0.1,0.7,0.2,1.4,0.8,1.6C246.7,106.1,247.4,106.1,248.1,106.1
	C248.1,106.1,248.1,106.1,248.1,106.1z M247.2,102.8c0.4,0,0.7-0.1,1.1-0.1c0.5,0,1-0.2,1.1-0.8c0.1-0.6,0-1.2-0.6-1.5
	c-0.8-0.4-1.6-0.3-2.4-0.1c-0.8,0.2-1.2,0.8-1.2,1.6c0,0.5,0.2,0.8,0.7,0.8C246.3,102.8,246.7,102.8,247.2,102.8z"/>
<path class="st0" d="M205,103.7c-0.4,0-0.9,0-1.3,0c-0.6,0-0.8,0.4-0.8,0.9c0.1,1,0.8,1.6,1.8,1.5c0.8,0,1.5-0.1,2.3-0.1
	c0.2,0,0.4,0.2,0.6,0.3c-0.2,0.2-0.4,0.5-0.5,0.5c-1,0.1-2.1,0.2-3.1,0.2c-0.9,0-1.5-0.6-1.8-1.5c-0.4-1.6-0.4-3.1,0.1-4.7
	c0.3-1,1.1-1.4,2-1.4c0.8-0.1,1.5,0,2.3,0.1c1,0.2,1.7,1.3,1.6,2.5c-0.1,1.1-0.7,1.7-1.9,1.7C205.9,103.7,205.5,103.7,205,103.7
	C205,103.7,205,103.7,205,103.7z M204.9,102.8C204.9,102.8,204.9,102.8,204.9,102.8c0.4,0,0.8,0,1.2,0c0.6,0,1-0.3,1.1-0.9
	c0.1-0.6-0.1-1.1-0.6-1.4c-0.6-0.4-2.6-0.4-3,0.2c-0.3,0.4-0.6,1.1-0.5,1.6c0,0.6,0.7,0.5,1.2,0.5
	C204.5,102.8,204.7,102.8,204.9,102.8z"/>
<path class="st0" d="M40,97.1c-0.4,1.1-0.8,2.1-1.1,3.1c-0.8,2-1.5,4.1-2.3,6.1c-0.1,0.3-0.5,0.6-0.7,0.6c-0.3,0-0.7-0.3-0.8-0.6
	c-1-2.7-2-5.5-3-8.3c-0.1-0.2-0.2-0.4-0.2-0.6c0-0.3,0.1-0.5,0.2-0.8c0.2,0.2,0.6,0.3,0.7,0.5c0.3,0.6,0.5,1.2,0.7,1.9
	c0.6,1.6,1.1,3.2,1.7,4.9c0,0.1,0.1,0.2,0.1,0.3c0.2,0.2,0.3,0.5,0.5,0.5c0.2,0,0.4-0.3,0.5-0.5c0.5-1.3,1-2.6,1.5-4
	c0.4-1.1,0.8-2.1,1.2-3.2c0.1-0.2,0.4-0.3,0.6-0.4C39.7,96.6,39.9,96.9,40,97.1z"/>
<path class="st0" d="M95.6,110.1c0.3-0.7,0.5-1.4,0.8-2c0.3-0.6,0.2-1-0.4-1.4c-0.7-0.4-0.9-1.1-1.2-1.8c-0.5-1.5-1-3.1-1.4-4.6
	c-0.1-0.2,0.1-0.5,0.2-0.8c0.2,0.2,0.6,0.3,0.7,0.5c0.4,0.9,0.6,1.8,0.9,2.7c0.3,0.8,0.5,1.7,0.8,2.5c0.1,0.3,0.5,0.5,0.7,0.7
	c0.2-0.2,0.5-0.4,0.6-0.7c0.4-0.9,0.6-1.9,1-2.9c0.3-0.8,0.6-1.6,0.9-2.4c0.1-0.2,0.5-0.3,0.7-0.4c0,0.3,0.2,0.6,0.1,0.8
	c-1,2.9-2,5.9-3,8.8c-0.2,0.5-0.5,0.9-0.8,1.3c-0.1,0.1-0.3,0.2-0.4,0.1C95.7,110.4,95.6,110.2,95.6,110.1z"/>
<path class="st0" d="M273.7,100.1c-0.2,0.5-0.4,0.9-0.5,1.4c-0.9,2.5-1.7,5.1-2.6,7.6c-0.1,0.4-0.3,0.8-0.6,1.1
	c-0.1,0.2-0.4,0.3-0.7,0.4c0-0.3-0.1-0.5-0.1-0.8c0.2-0.6,0.4-1.1,0.6-1.6c0.3-0.6,0.1-1-0.4-1.4c-0.5-0.4-0.9-1-1.1-1.6
	c-0.6-1.5-1-3.1-1.5-4.7c-0.1-0.2,0.1-0.6,0.2-0.8c0.3,0.2,0.6,0.3,0.7,0.5c0.5,1.5,1,3.1,1.5,4.6c0.1,0.2,0.1,0.5,0.3,0.6
	c0.2,0.2,0.5,0.4,0.8,0.5c0.1,0,0.4-0.3,0.5-0.6c0.5-1.5,1-3,1.6-4.4c0.1-0.4,0.3-0.7,0.5-1.1c0.1-0.1,0.4-0.2,0.6-0.2
	C273.5,99.6,273.6,99.9,273.7,100.1z"/>
<path class="st0" d="M86.2,100c-0.3,0.1-0.7,0.2-1,0.2c-0.7,0-1.5,0-2.2,0c-0.9,0-1.4,0.5-1.4,1.3c0,0.7,0.6,1.2,1.4,1.2
	c0.7,0,1.3,0,2,0c1.1,0,1.7,0.8,1.7,1.8c0,0.2,0,0.4,0,0.6c0,1.1-0.5,1.8-1.6,1.8c-1.1,0-2.2,0-3.3-0.1c-0.2,0-0.3-0.2-0.5-0.4
	c0.2-0.1,0.3-0.4,0.5-0.4c0.9-0.1,1.8,0,2.7-0.1c0.9,0,1.2-0.4,1.3-1.1c0.1-0.7-0.3-1.2-1.1-1.2c-0.6,0-1.3,0-1.9,0
	c-1.5,0-2.2-0.7-2.2-2.2c0-1.5,0.7-2.3,2.2-2.2c0.8,0,1.7,0,2.5,0.1c0.3,0,0.6,0.2,0.9,0.3C86.2,99.8,86.2,99.9,86.2,100z"/>
<path class="st0" d="M137.9,103.2c0-0.9,0-1.9,0-2.8c0-0.7,0.3-0.9,0.8-0.5c0.4,0.3,0.7,0.2,1,0c0.6-0.2,1.2-0.5,1.8-0.6
	c1.4-0.1,2.5,1,2.6,2.4c0,1.4,0,2.8,0,4.2c0,0.1,0,0.2,0,0.3c-0.2,0.2-0.4,0.4-0.5,0.6c-0.1-0.2-0.4-0.4-0.4-0.6c0-1.3,0-2.6,0-4
	c0-0.4,0-0.8-0.1-1.1c-0.2-0.7-0.8-1-1.5-0.9c-0.7,0.1-1.5,0.3-2.2,0.6c-0.3,0.2-0.5,0.8-0.5,1.2c-0.1,1.3,0,2.6,0,4
	c0,0.4,0,0.8-0.5,0.8c-0.5,0-0.5-0.4-0.5-0.8C137.9,105.1,137.9,104.1,137.9,103.2C137.9,103.2,137.9,103.2,137.9,103.2z"/>
<path class="st0" d="M181.1,103.2c0-0.9,0-1.9,0-2.8c0-0.3,0.2-0.5,0.3-0.8c0.2,0.1,0.4,0.2,0.6,0.3c0.3,0,0.7,0,1-0.1
	c0.7-0.2,1.4-0.5,2.2-0.5c1.1,0,2,0.9,2.1,1.9c0.1,1.7,0.1,3.4,0,5.1c0,0.2-0.3,0.4-0.4,0.5c-0.2-0.2-0.5-0.4-0.5-0.6
	c0-1.3,0-2.7,0-4c0-1.7-1-2.4-2.5-1.8c-0.2,0.1-0.4,0.1-0.6,0.2c-0.8,0.3-1.2,0.8-1.2,1.6c0,1.3,0,2.6,0,3.9c0,0.3-0.3,0.5-0.4,0.8
	c-0.2-0.3-0.5-0.5-0.5-0.8C181.1,105.1,181.1,104.2,181.1,103.2C181.1,103.2,181.1,103.2,181.1,103.2z"/>
<path class="st0" d="M209.8,103.2c0-1,0-1.9,0-2.9c0-0.7,0.2-0.9,0.8-0.5c0.4,0.3,0.8,0.2,1.2,0c2.4-1.4,4.3,0.2,4.2,2.2
	c-0.1,1.3,0,2.7,0,4c0,0.3-0.3,0.7-0.5,0.8c-0.5,0.1-0.5-0.4-0.5-0.7c0-1.4,0-2.8,0-4.2c0-1.4-1-2-2.3-1.6c-2.2,0.6-2,0.6-2,2.8
	c0,0.9,0,1.7,0,2.6c0,0.2,0,0.4,0,0.6c-0.1,0.2-0.3,0.4-0.5,0.6c-0.1-0.2-0.4-0.4-0.4-0.6C209.8,105.3,209.8,104.3,209.8,103.2
	C209.8,103.2,209.8,103.2,209.8,103.2z"/>
<path class="st0" d="M68.6,103.7c0-0.8,0-1.6,0-2.4c0-0.5-0.1-0.8-0.6-0.9c-0.2,0-0.4-0.3-0.4-0.4c0-0.2,0.2-0.5,0.4-0.5
	c0.7-0.3,0.8-0.8,0.7-1.5c-0.1-1.8,1.1-2.7,2.8-2.2c0.2,0.1,0.4,0.3,0.5,0.5c-0.2,0.1-0.4,0.3-0.6,0.3c-1.5,0.1-1.9,0.6-1.8,2
	c0.1,0.5,0.3,0.8,0.9,0.8c0.4,0,1.1-0.2,1.1,0.5c0,0.7-0.6,0.5-1,0.5c-0.6,0-1,0.3-1,0.9c0,1.5,0,3,0,4.5c0,0.2,0.1,0.4,0,0.5
	c-0.2,0.2-0.4,0.3-0.6,0.5c-0.1-0.2-0.4-0.4-0.4-0.6C68.6,105.4,68.6,104.6,68.6,103.7z"/>
<path class="st0" d="M252,103.2c0-0.9,0-1.9,0-2.8c0-0.7,0.2-0.8,0.9-0.5c0.2,0.1,0.6,0.1,0.8,0c0.3-0.1,0.6-0.3,0.9-0.4
	c1.8-0.8,3.6,0.4,3.6,2.3c0,1.4,0,2.9-0.1,4.3c0,0.2-0.3,0.5-0.4,0.7c-0.2-0.2-0.4-0.5-0.4-0.7c0-1.3,0-2.5,0-3.8
	c0-1.8-1-2.6-2.7-1.9c-0.2,0.1-0.3,0.1-0.5,0.1c-0.9,0.2-1.2,0.6-1.2,1.5c0,1.1,0,2.1,0,3.2c0,0.4,0,0.8-0.1,1.1
	c0,0.2-0.3,0.3-0.4,0.5c-0.1-0.2-0.4-0.4-0.4-0.5C252,105.3,252,104.2,252,103.2C252,103.2,252,103.2,252,103.2z"/>
<path class="st0" d="M262.7,107.1c-2.1,0-2.8-0.6-3-2.7c-0.1-1.1,0-2.3,0.2-3.4c0.1-1,1-1.6,2-1.6c0.9,0,1.7,0.1,2.6,0.2
	c0.2,0,0.3,0.3,0.5,0.5c-0.2,0.1-0.4,0.2-0.7,0.2c-0.8,0-1.7-0.1-2.5,0c-0.4,0-0.8,0.4-1,0.7c-0.6,1.3-0.4,2.6-0.1,3.9
	c0.2,0.7,0.7,1,1.4,1c0.8,0,1.5-0.1,2.3-0.1c0.2,0,0.5,0.2,0.7,0.3c-0.2,0.2-0.3,0.5-0.5,0.5C264,106.9,263.4,107,262.7,107.1z"/>
<path class="st0" d="M149.5,106.5c-0.2,0.6-0.8,0.7-1.1,0.5c-0.5-0.2-1.1-0.6-1.4-1c-0.3-0.6-0.4-1.4-0.4-2.1c-0.1-0.8,0-1.7,0-2.5
	c0-0.5-0.1-0.8-0.7-1c-0.2,0-0.3-0.3-0.5-0.4c0.1-0.1,0.3-0.3,0.4-0.4c0.6-0.3,0.8-0.7,0.9-1.3c0-0.3,0.3-0.5,0.5-0.7
	c0.1,0.3,0.3,0.5,0.3,0.8c0,0.8,0.2,1,1,1c0.1,0,0.2,0,0.2,0c0.3,0.2,0.6,0.3,0.9,0.5c-0.3,0.2-0.6,0.4-0.9,0.4
	c-0.9,0-1.2,0.3-1.2,1.2c0,1,0,2.1,0,3.1c0,0.8,0.5,1.3,1.2,1.6C149,106.2,149.3,106.4,149.5,106.5z"/>
<path class="st0" d="M57.2,101.4c0-1.3,0-2.6,0-4c0-0.4,0-0.8,0.5-0.7c0.2,0,0.4,0.5,0.4,0.7c0,2.4,0,4.7,0,7.1
	c0,1.3,0.3,1.6,1.6,1.5c1,0,2,0,3,0c0.2,0,0.4,0.3,0.7,0.5c-0.2,0.2-0.4,0.5-0.6,0.5c-1.5,0-3,0-4.5-0.1c-0.6,0-1.1-0.8-1.1-1.5
	C57.2,104,57.2,102.7,57.2,101.4C57.2,101.4,57.2,101.4,57.2,101.4z"/>
<path class="st0" d="M166,103c0-0.4,0-0.9,0-1.3c0-0.6,0-1.2-0.8-1.4c-0.5-0.2-0.3-0.6,0-0.7c0.7-0.3,0.8-0.8,0.9-1.4
	c0-0.2,0.3-0.4,0.4-0.6c0.1,0.2,0.3,0.4,0.4,0.6c0.1,1.1,0.2,1.1,1.2,1.2c0.4,0,0.9,0,0.8,0.5c0,0.2-0.6,0.5-0.9,0.5
	c-0.9,0-1.1,0.2-1.1,1c0,1,0,2,0,3.1c0,1,0.3,1.4,1.2,1.7c0.2,0.1,0.4,0.4,0.6,0.6c-0.3,0.1-0.5,0.3-0.8,0.3c-1.2,0-1.9-0.8-2-2
	C166,104.3,166.1,103.6,166,103C166,103,166,103,166,103z"/>
<path class="st0" d="M89.8,97.4c0,0.3,0.1,0.7,0.1,1c0,0.5,0.2,0.8,0.8,0.8c0.3,0,0.7,0,1,0.1c0.2,0.1,0.4,0.3,0.4,0.4
	c0,0.1-0.2,0.3-0.4,0.4c0,0-0.1,0-0.2,0c-1.5,0.1-1.6,0.2-1.6,1.7c0,0.8,0,1.7,0,2.5c0,1,0.3,1.2,1.1,1.6c0.3,0.1,0.4,0.4,0.7,0.6
	c-0.3,0.1-0.6,0.3-0.9,0.3c-1-0.1-1.6-0.6-1.7-1.7c-0.1-1.1-0.1-2.2-0.1-3.3c0-0.8,0-1.4-0.9-1.7c-0.4-0.1-0.4-0.6,0-0.7
	c0.7-0.3,1.1-0.8,1.1-1.6c0-0.2,0.2-0.4,0.4-0.6C89.6,97.4,89.7,97.4,89.8,97.4z"/>
<path class="st0" d="M217.1,100c0.4-0.2,0.5-0.4,0.7-0.5c0.6-0.3,0.9-0.7,0.9-1.4c0-0.2,0.2-0.4,0.3-0.7c0.1,0.2,0.3,0.4,0.4,0.7
	c0.1,1.2,0.1,1.2,1.4,1.2c0.3,0,0.5,0.3,0.8,0.5c-0.3,0.2-0.5,0.5-0.8,0.5c-1.1,0-1.3,0.1-1.3,1.3c0,0.9,0,1.7,0,2.6
	c0,1,0.3,1.7,1.3,2c0.2,0.1,0.4,0.4,0.6,0.6c-0.3,0.1-0.5,0.3-0.8,0.3c-1.1,0-1.8-0.8-1.9-1.9c-0.1-1-0.1-2,0-3c0-0.8,0-1.6-1-1.8
	C217.4,100.2,217.3,100.1,217.1,100z"/>
<path class="st0" d="M101.7,100.7c0-1.2,0-2.4,0-3.5c0-0.2,0-0.4,0-0.5c0.1-0.3,0.3-0.5,0.5-0.7c0.2,0.2,0.5,0.5,0.5,0.7
	c0,1.2,0,2.3,0,3.5c0,1.5,0,3,0,4.4c0,1,0.3,1.4,1.2,1.7c0.2,0.1,0.4,0.3,0.6,0.5c-0.3,0.1-0.5,0.3-0.8,0.3c-1.1,0-1.9-0.6-1.9-1.7
	c-0.1-1.5,0-3.1,0-4.6C101.7,100.7,101.7,100.7,101.7,100.7z"/>
<path class="st0" d="M158.9,103.2c0-0.9,0-1.9,0-2.8c0-0.2,0.1-0.4,0.2-0.6c0.2,0.1,0.4,0.2,0.6,0.2c0.4,0,0.8,0.1,1.1,0
	c0.7-0.1,1.3-0.5,2-0.6c0.3,0,0.6,0.3,0.9,0.5c-0.3,0.2-0.5,0.4-0.8,0.5c-0.7,0.2-1.4,0.2-2,0.4c-0.7,0.2-1,0.7-1,1.4
	c0,1.3,0,2.7,0,4c0,0.4,0,0.8-0.5,0.8c-0.5,0-0.5-0.4-0.5-0.7C158.9,105.1,158.9,104.1,158.9,103.2
	C158.9,103.2,158.9,103.2,158.9,103.2z"/>
<path class="st0" d="M41.9,101.7c0-1.5,0-2.9,0-4.4c0-0.2,0.2-0.5,0.4-0.7c0.2,0.2,0.4,0.5,0.4,0.7c0,2.5,0,5,0,7.5
	c0,0.4,0.1,0.9,0,1.3c0,0.3-0.3,0.5-0.5,0.7c-0.1-0.2-0.4-0.4-0.4-0.7C41.9,104.7,41.9,103.2,41.9,101.7
	C41.9,101.7,41.9,101.7,41.9,101.7z"/>
<path class="st0" d="M65,103.1c0-0.9,0-1.9,0-2.8c0-0.3,0.2-0.5,0.3-0.7c0.2,0.2,0.5,0.5,0.5,0.8c0.1,0.9,0,1.8,0,2.7c0,1,0,2,0,3
	c0,0.4,0,0.8-0.5,0.8c-0.2,0-0.4-0.5-0.4-0.8C64.9,105,65,104.1,65,103.1C65,103.1,65,103.1,65,103.1z"/>
<path class="st0" d="M179.2,103.3c0,0.9,0,1.9,0,2.8c0,0.3-0.3,0.5-0.4,0.7c-0.1-0.2-0.4-0.5-0.4-0.7c0-2,0-4,0-6
	c0-0.2,0.2-0.4,0.3-0.6c0.2,0.2,0.5,0.4,0.5,0.6C179.2,101.2,179.2,102.2,179.2,103.3C179.2,103.3,179.2,103.3,179.2,103.3z"/>
<path class="st0" d="M65.5,96.8c0.3,0.4,0.6,0.7,0.6,0.9c0,0.2-0.4,0.4-0.6,0.6c-0.2-0.2-0.5-0.4-0.6-0.7
	C64.9,97.4,65.2,97.2,65.5,96.8z"/>
<path class="st0" d="M178.8,96.8c0.3,0.4,0.6,0.6,0.5,0.8c0,0.2-0.3,0.4-0.5,0.7c-0.2-0.2-0.5-0.4-0.6-0.6
	C178.2,97.4,178.5,97.2,178.8,96.8z"/>
<path class="st0" d="M411.8,50.5c-0.9-3.8-3.4-6.6-7.5-7.1c-1.7-0.2-3.4-0.2-5.1-0.2c-4.6,0-9.3,0-13.9,0c-0.7,0-0.9,0.2-0.9,0.9
	c0,6.6,0,13.3,0,19.9c0,0,0,0,0,0c0,6.6,0,13.3,0,19.9c0,0.8,0.3,1,1.1,1c1,0,2,0,3,0c0.8,0,1.1-0.2,1.1-1.1c0-1.3,0-2.6,0-4
	c0-3.8,0-7.7,0-11.5c0-1,0.4-1.3,1.4-1.1c0.2,0.1,0.5,0.1,0.8,0.1c2.6,0.2,5.1,0.5,7.7,0.7c1.8,0.1,3.6,0.2,5.3,0
	c2.7-0.3,4.8-1.7,6.1-4.1c0.8-1.6,1.3-3.3,1.4-5.1C412.3,56.1,412.5,53.3,411.8,50.5z M406.9,59.2c-0.4,2.6-2.4,4.2-5,4.2
	c-3.7,0-7.5,0-11.2,0c-0.9,0-1.2-0.2-1.2-1.1c0-2.2,0-4.4,0-6.7c0,0,0,0,0,0c0-2.1,0-4.3,0-6.4c0-1.1,0.2-1.3,1.2-1.3
	c3.7,0,7.5,0,11.2,0c1.7,0,3.2,0.6,4.1,2.2c0.4,0.6,0.7,1.3,0.8,2.1C407.3,54.6,407.2,56.9,406.9,59.2z"/>
</svg>
