<?xml version="1.0" encoding="utf-8"?>
<!-- Generator: Adobe Illustrator 24.0.0, SVG Export Plug-In . SVG Version: 6.00 Build 0)  -->
<svg version="1.1"
	 id="Ebene_1" inkscape:version="0.92.4 5da689c313, 2019-01-14" sodipodi:docname="masternodes_white.svg" xmlns:cc="http://creativecommons.org/ns#" xmlns:dc="http://purl.org/dc/elements/1.1/" xmlns:inkscape="http://www.inkscape.org/namespaces/inkscape" xmlns:rdf="http://www.w3.org/1999/02/22-rdf-syntax-ns#" xmlns:sodipodi="http://sodipodi.sourceforge.net/DTD/sodipodi-0.dtd" xmlns:svg="http://www.w3.org/2000/svg"
	 xmlns="http://www.w3.org/2000/svg" xmlns:xlink="http://www.w3.org/1999/xlink" x="0px" y="0px" viewBox="0 0 48 48"
	 style="enable-background:new 0 0 48 48;" xml:space="preserve">
<style type="text/css">
	.st0{fill:#FFFFFF;}
</style>
<sodipodi:namedview  bordercolor="#666666" borderopacity="1" gridtolerance="10" guidetolerance="10" id="namedview10" inkscape:current-layer="Ebene_1" inkscape:cx="24.754754" inkscape:cy="27.658825" inkscape:pageopacity="0" inkscape:pageshadow="2" inkscape:window-height="805" inkscape:window-maximized="0" inkscape:window-width="1313" inkscape:window-x="155" inkscape:window-y="131" inkscape:zoom="9.3593832" objecttolerance="10" pagecolor="#ffffff" showgrid="false">
	</sodipodi:namedview>
<path id="path13782" inkscape:connector-curvature="0" class="st0" d="M4.3,47.8c-0.8-0.5-0.9-0.6-0.9-5.4c0-4.8,0-5,0.9-5.5
	c0.6-0.3,38.8-0.3,39.4,0c0.9,0.5,0.9,0.6,0.9,5.4c0,2.5,0,4.7-0.1,4.9C44.1,48,44.5,48,24,48C10.4,48,4.6,47.9,4.3,47.8z M8.8,45.8
	c0.6-0.6,0.3-1.6-0.6-1.6c-1.2,0-1.1,1.9,0,1.9C8.4,46.1,8.7,45.9,8.8,45.8L8.8,45.8z M13.3,45.9c0.4-0.2,0.5-1.1,0.1-1.5
	c-0.1-0.1-0.4-0.2-0.6-0.2c-0.5,0-0.9,0.4-0.9,1C12,45.9,12.6,46.3,13.3,45.9z M17.9,45.9c0.4-0.2,0.5-1.1,0.1-1.5
	c-0.1-0.1-0.4-0.2-0.6-0.2c-0.5,0-0.9,0.4-0.9,1C16.6,45.9,17.2,46.3,17.9,45.9z M22.5,45.9c0.4-0.2,0.5-1.1,0.1-1.5
	c-0.1-0.1-0.4-0.2-0.6-0.2c-0.8,0-1.2,1-0.6,1.6C21.8,46.1,22,46.2,22.5,45.9L22.5,45.9z M27.2,45.7c0.5-0.5,0.5-0.6,0.1-1.1
	c-0.3-0.5-1-0.6-1.4-0.2c-0.3,0.3-0.3,1,0.1,1.4C26.4,46.2,26.8,46.2,27.2,45.7L27.2,45.7z M39.3,44.8c1.3-0.8,1.7-2.7,0.9-3.9
	c-0.9-1.5-3.1-1.7-4.3-0.4c-0.6,0.6-0.7,0.8-0.8,1.7c-0.1,1.2,0.3,2,1.2,2.6C37,45.2,38.6,45.2,39.3,44.8L39.3,44.8z M11.1,43.1
	c0.6-0.6,0.3-1.6-0.6-1.6c-1.2,0-1.1,1.9,0,1.9C10.7,43.4,11,43.3,11.1,43.1L11.1,43.1z M15.6,43.2c0.4-0.2,0.5-1.1,0.1-1.5
	c-0.1-0.1-0.4-0.2-0.6-0.2c-0.5,0-0.9,0.4-0.9,1C14.3,43.2,14.9,43.6,15.6,43.2z M20.2,43.2c0.4-0.2,0.5-1.1,0.1-1.5
	c-0.1-0.1-0.4-0.2-0.6-0.2c-0.5,0-0.9,0.4-0.9,1C18.9,43.2,19.5,43.6,20.2,43.2z M24.8,43.2c0.5-0.4,0.5-0.8,0.2-1.3
	c-0.3-0.4-1-0.5-1.4-0.2c-0.3,0.3-0.3,1,0.1,1.4C24.1,43.5,24.4,43.5,24.8,43.2L24.8,43.2z M8.9,40.3c0.7-0.7-0.3-2-1.1-1.5
	c-0.3,0.1-0.4,0.4-0.4,0.7c0,0.6,0.3,1,0.9,1C8.5,40.5,8.8,40.4,8.9,40.3z M13.6,40.1c0.3-0.4,0-1.3-0.4-1.4
	c-0.9-0.3-1.6,0.9-0.9,1.6C12.5,40.6,13.3,40.5,13.6,40.1z M18.1,40.3c0.4-0.4,0.3-1.3-0.2-1.5c-0.7-0.3-1.3,0.1-1.3,0.9
	c0,0.5,0.3,0.9,0.9,0.9C17.6,40.5,17.9,40.4,18.1,40.3z M22.6,40.3c0.4-0.4,0.3-1.3-0.2-1.5c-0.3-0.2-0.5-0.1-0.9,0.1
	c-0.8,0.5-0.5,1.6,0.4,1.6C22.2,40.5,22.5,40.4,22.6,40.3L22.6,40.3z M27.3,40.1c0.3-0.5,0.2-1-0.3-1.3c-0.8-0.4-1.7,0.9-1.1,1.5
	C26.3,40.7,27,40.6,27.3,40.1z M0,42.3v-2.4h0.9h0.9v2.4v2.4H0.9H0V42.3z M46.3,42.3v-2.4h0.9H48v2.4v2.4h-0.9h-0.9V42.3z M3.9,35.2
	l-0.5-0.5v-4.7v-4.7l0.5-0.5l0.5-0.5H24h19.6l0.5,0.5l0.5,0.5v4.7v4.7l-0.5,0.5l-0.5,0.5H24H4.4L3.9,35.2z M9,33.4
	C9.3,33,9,32.1,8.6,32c-0.9-0.3-1.5,0.7-1,1.4C7.9,33.9,8.7,33.9,9,33.4L9,33.4z M13.5,33.6c0.4-0.4,0.3-1.3-0.2-1.5
	c-0.6-0.3-1.3,0.1-1.3,0.8c0,0.6,0.3,1,0.9,1C13.1,33.8,13.4,33.7,13.5,33.6z M18.1,33.6c0.4-0.4,0.3-1.3-0.2-1.5
	c-0.6-0.3-1.3,0.1-1.3,0.8c0,0.6,0.3,1,0.9,1C17.6,33.8,17.9,33.7,18.1,33.6z M22.6,33.6c0.4-0.4,0.3-1.3-0.1-1.5
	c-0.5-0.3-0.7-0.3-1,0.1c-0.6,0.6-0.3,1.6,0.6,1.6C22.2,33.8,22.5,33.7,22.6,33.6L22.6,33.6z M27.3,33.4c0.4-0.6-0.1-1.5-0.8-1.5
	c-0.4,0-0.8,0.6-0.8,1C25.7,33.8,26.8,34.1,27.3,33.4z M39.5,32.4c0.8-0.6,1.2-1.4,1.1-2.6c-0.3-3.6-5.5-3.2-5.5,0.4
	C35.1,32.4,37.6,33.7,39.5,32.4z M11.2,30.9c0.4-0.4,0.3-1.3-0.2-1.5c-0.6-0.3-1.3,0.1-1.3,0.8c0,0.6,0.3,1,0.9,1
	C10.8,31.1,11.1,31,11.2,30.9z M15.8,30.9c0.4-0.4,0.3-1.3-0.2-1.5c-0.6-0.3-1.3,0.1-1.3,0.8c0,0.6,0.3,1,0.9,1
	C15.4,31.1,15.6,31,15.8,30.9z M20.3,30.9c0.4-0.4,0.3-1.3-0.2-1.5c-0.6-0.3-1.3,0.1-1.3,0.8c0,0.6,0.3,1,0.9,1
	C19.9,31.1,20.2,31,20.3,30.9z M24.9,30.9c0.4-0.4,0.3-1.3-0.1-1.5c-0.5-0.3-0.7-0.3-1,0.1c-0.6,0.6-0.3,1.6,0.6,1.6
	C24.5,31.1,24.8,31,24.9,30.9L24.9,30.9z M8.9,28c0.5-0.5,0.1-1.5-0.7-1.5c-0.8,0-1.2,1.1-0.6,1.6C8,28.3,8.7,28.3,8.9,28L8.9,28z
	 M13.5,28c0.1-0.1,0.2-0.4,0.2-0.6c0-0.2-0.1-0.5-0.2-0.6c-0.1-0.1-0.4-0.2-0.6-0.2c-0.8,0-1.2,1-0.6,1.5c0.1,0.1,0.4,0.2,0.6,0.2
	C13.1,28.2,13.4,28.1,13.5,28z M18.1,28c0.1-0.1,0.2-0.4,0.2-0.6c0-0.2-0.1-0.5-0.2-0.6c-0.5-0.5-1.5-0.1-1.5,0.6
	c0,0.2,0.1,0.5,0.2,0.6c0.1,0.1,0.4,0.2,0.6,0.2C17.6,28.2,17.9,28.1,18.1,28z M22.7,27.8c0.3-0.4,0.3-0.5,0-0.8
	c-0.5-0.8-1.6-0.5-1.6,0.4C21.1,28.2,22.2,28.6,22.7,27.8L22.7,27.8z M27.4,27.8c0.3-0.8-0.7-1.7-1.4-1.1c-0.3,0.3-0.4,1,0,1.3
	C26.3,28.4,27.2,28.3,27.4,27.8z M0,30.1v-2.3h0.9h0.9v2.3v2.3H0.9H0V30.1z M46.3,30.1v-2.3h0.9H48v2.3v2.3h-0.9h-0.9V30.1z
	 M4.7,23.5c-0.2-0.1-0.6-0.3-0.8-0.5c-0.4-0.4-0.4-0.5-0.4-5.1v-4.7l0.5-0.5l0.5-0.5H24h19.6l0.5,0.5l0.5,0.5v4.7v4.7l-0.5,0.5
	l-0.5,0.5l-19.3,0C13.7,23.6,4.9,23.5,4.7,23.5L4.7,23.5z M8.9,21.2c0.3-0.4,0.2-1.1-0.2-1.3c-0.4-0.3-1.3,0-1.4,0.4
	C7.2,21.2,8.4,21.9,8.9,21.2z M13.5,21.3c0.1-0.1,0.2-0.4,0.2-0.6s-0.1-0.5-0.2-0.6c-0.1-0.1-0.4-0.2-0.6-0.2c-0.8,0-1.2,1-0.6,1.5
	c0.1,0.1,0.4,0.2,0.6,0.2C13.1,21.5,13.4,21.4,13.5,21.3z M18.1,21.3c0.1-0.1,0.2-0.4,0.2-0.6s-0.1-0.5-0.2-0.6
	c-0.5-0.5-1.5-0.1-1.5,0.6c0,0.2,0.1,0.5,0.2,0.6c0.1,0.1,0.4,0.2,0.6,0.2C17.6,21.5,17.9,21.4,18.1,21.3z M22.7,21.1
	c0.3-0.4,0.3-0.5,0-0.8c-0.5-0.8-1.6-0.5-1.6,0.4C21.1,21.5,22.2,21.8,22.7,21.1L22.7,21.1z M27.3,21.1c0.4-0.6,0.1-1.2-0.5-1.3
	c-0.6-0.1-1.1,0.3-1.1,0.8C25.7,21.5,26.8,21.8,27.3,21.1z M39,20.5c1-0.5,1.4-1.2,1.5-2.3c0.2-2.3-1.8-3.8-3.8-2.8
	c-1.1,0.5-1.6,1.3-1.6,2.5C35,19.9,37.3,21.4,39,20.5z M11.2,18.6c0.5-0.5,0.1-1.5-0.6-1.5c-0.5,0-0.9,0.3-0.9,0.9s0.3,0.9,0.9,0.9
	C10.8,18.8,11.1,18.7,11.2,18.6z M15.8,18.6c0.1-0.1,0.2-0.4,0.2-0.6c0-0.2-0.1-0.5-0.2-0.6c-0.5-0.5-1.5-0.1-1.5,0.6
	c0,0.2,0.1,0.5,0.2,0.6c0.1,0.1,0.4,0.2,0.6,0.2C15.4,18.8,15.6,18.7,15.8,18.6z M20.3,18.6c0.1-0.1,0.2-0.4,0.2-0.6
	c0-0.2-0.1-0.5-0.2-0.6c-0.1-0.1-0.4-0.2-0.6-0.2c-0.8,0-1.2,1-0.6,1.5c0.1,0.1,0.4,0.2,0.6,0.2C19.9,18.8,20.2,18.7,20.3,18.6z
	 M25,18.4c0.4-0.6,0.1-1.2-0.5-1.3c-0.6-0.1-1.1,0.3-1.1,0.8C23.4,18.8,24.5,19.1,25,18.4z M8.8,15.8c0.4-0.4,0.4-1.1,0.1-1.4
	c-0.4-0.4-1.1-0.3-1.4,0.2c-0.3,0.4-0.2,0.9,0.2,1.3C8.2,16.2,8.5,16.2,8.8,15.8L8.8,15.8z M13.3,15.9c0.4-0.2,0.5-1.1,0.1-1.5
	c-0.1-0.1-0.4-0.2-0.6-0.2c-0.5,0-0.9,0.4-0.9,1C12,16,12.6,16.3,13.3,15.9z M17.9,15.9c0.4-0.2,0.5-1.1,0.1-1.5
	c-0.1-0.1-0.4-0.2-0.6-0.2c-0.5,0-0.9,0.4-0.9,1C16.6,16,17.2,16.3,17.9,15.9z M22.5,15.9c0.4-0.2,0.5-1.1,0.1-1.5
	c-0.1-0.1-0.4-0.2-0.6-0.2c-0.8,0-1.2,1-0.6,1.6C21.8,16.2,22,16.2,22.5,15.9L22.5,15.9z M27.1,15.9c0.5-0.4,0.5-0.8,0.2-1.3
	c-0.3-0.4-1-0.5-1.4-0.2c-0.3,0.3-0.3,1,0.1,1.4C26.4,16.2,26.7,16.2,27.1,15.9L27.1,15.9z M0,17.9v-2.3h0.9h0.9v2.3v2.3H0.9H0V17.9
	z M46.3,17.9v-2.3h0.9H48v2.3v2.3h-0.9h-0.9V17.9z M4.3,11.1c-0.8-0.5-0.8-0.6-0.9-5.4c0-2.5,0-4.7,0.1-4.9C3.9,0,3.5,0,24,0
	c20.5,0,20.1,0,20.5,0.9c0.1,0.2,0.1,2.4,0.1,4.9c0,4.8,0,4.9-0.9,5.4C43.1,11.4,4.8,11.4,4.3,11.1L4.3,11.1z M8.7,9.1
	c0.7-0.5,0.4-1.6-0.4-1.6c-0.2,0-0.5,0.1-0.6,0.2C7.3,8.1,7.4,9,7.8,9.2C8.2,9.5,8.2,9.5,8.7,9.1L8.7,9.1z M13.4,9.1
	c0.6-0.6,0.3-1.6-0.6-1.6c-1.2,0-1.1,1.9,0,1.9C13,9.4,13.3,9.3,13.4,9.1L13.4,9.1z M17.9,9.2C18.4,9,18.4,8,18,7.7
	c-0.4-0.3-1.1-0.2-1.3,0.2c-0.3,0.4,0,1.3,0.4,1.4c0.2,0,0.4,0.1,0.4,0.1C17.5,9.4,17.7,9.3,17.9,9.2L17.9,9.2z M22.5,9.2
	C22.9,9,23,8.1,22.6,7.7c-0.1-0.1-0.4-0.2-0.6-0.2c-0.9,0-1.2,1.1-0.4,1.6C22.1,9.5,22,9.5,22.5,9.2L22.5,9.2z M27.2,9
	c0.5-0.5,0.5-0.6,0.1-1.1c-0.3-0.5-1-0.6-1.4-0.2s-0.3,1.1,0.2,1.4C26.7,9.5,26.8,9.5,27.2,9L27.2,9z M39.3,8.1
	c0.9-0.6,1.3-1.3,1.3-2.4c0-1.7-1.1-2.8-2.7-2.8c-1.8,0-2.9,1.2-2.7,3c0.1,1,0.7,2,1.6,2.3C37.4,8.6,38.7,8.5,39.3,8.1z M11,6.4
	c0.5-0.3,0.6-1,0.2-1.4c-0.3-0.3-1-0.3-1.3,0C9.6,5.4,9.7,6.3,10,6.5C10.5,6.8,10.5,6.8,11,6.4L11,6.4z M15.9,6
	c0.2-0.6-0.1-1.1-0.7-1.2c-0.6-0.1-1,0.3-1,1C14.3,6.8,15.7,6.9,15.9,6z M20.5,5.9c0.1-0.6-0.3-1.1-0.8-1.1c-0.9,0-1.2,1.1-0.5,1.6
	C19.8,6.8,20.5,6.5,20.5,5.9z M24.8,6.5c0.5-0.4,0.5-0.8,0.2-1.3c-0.3-0.4-1-0.5-1.4-0.2c-0.4,0.4-0.3,1.1,0.2,1.4
	C24.4,6.8,24.4,6.8,24.8,6.5L24.8,6.5z M9,3.4C9.3,3,9,2.2,8.6,2C7.7,1.7,7,2.9,7.7,3.6C8,3.9,8.8,3.8,9,3.4z M13.5,3.6
	c0.4-0.4,0.3-1.3-0.2-1.5C12.6,1.8,12,2.2,12,2.8c0,0.6,0.3,1,0.9,1C13.1,3.8,13.4,3.7,13.5,3.6z M18.1,3.6c0.4-0.4,0.3-1.3-0.2-1.5
	c-0.6-0.3-1.3,0.1-1.3,0.8c0,0.6,0.3,1,0.9,1C17.6,3.8,17.9,3.7,18.1,3.6z M22.6,3.6c0.4-0.4,0.3-1.3-0.1-1.5
	c-0.5-0.3-0.7-0.3-1,0.1c-0.6,0.6-0.3,1.6,0.6,1.6C22.2,3.8,22.5,3.7,22.6,3.6L22.6,3.6z M27.3,3.4c0.2-0.2,0.3-0.5,0.3-0.6
	c0-0.3-0.7-0.9-1-0.9c-0.7,0-1.1,1.2-0.6,1.7C26.3,4,27,3.9,27.3,3.4z M0,5.7V3.3h0.9h0.9v2.4v2.4H0.9H0V5.7z M46.3,5.7V3.3h0.9H48
	v2.4v2.4h-0.9h-0.9L46.3,5.7z"/>
</svg>
