<?xml version="1.0" encoding="utf-8"?>
<!-- Generator: Adobe Illustrator 24.0.0, SVG Export Plug-In . SVG Version: 6.00 Build 0)  -->
<svg version="1.1"
	 id="Ebene_1" inkscape:version="0.92.4 5da689c313, 2019-01-14" sodipodi:docname="rewards_white.svg" xmlns:cc="http://creativecommons.org/ns#" xmlns:dc="http://purl.org/dc/elements/1.1/" xmlns:inkscape="http://www.inkscape.org/namespaces/inkscape" xmlns:rdf="http://www.w3.org/1999/02/22-rdf-syntax-ns#" xmlns:sodipodi="http://sodipodi.sourceforge.net/DTD/sodipodi-0.dtd" xmlns:svg="http://www.w3.org/2000/svg"
	 xmlns="http://www.w3.org/2000/svg" xmlns:xlink="http://www.w3.org/1999/xlink" x="0px" y="0px" viewBox="0 0 48 48"
	 style="enable-background:new 0 0 48 48;" xml:space="preserve">
<style type="text/css">
	.st0{fill:#FFFFFF;}
</style>
<sodipodi:namedview  bordercolor="#666666" borderopacity="1" gridtolerance="10" guidetolerance="10" id="namedview10" inkscape:current-layer="Ebene_1" inkscape:cx="4.0459577" inkscape:cy="16.071065" inkscape:pageopacity="0" inkscape:pageshadow="2" inkscape:window-height="805" inkscape:window-maximized="0" inkscape:window-width="1313" inkscape:window-x="268" inkscape:window-y="76" inkscape:zoom="6.9532167" objecttolerance="10" pagecolor="#ffffff" showgrid="false">
	</sodipodi:namedview>
<g>
	<path class="st0" d="M48,28.9c0-0.9-0.2-1.1-1.1-1.1c-2.4,0-4.9,0-7.3,0h0c-0.3,0-0.6-0.3-0.6-0.6v-6.5c0-0.3,0.3-0.6,0.6-0.6h0.1
		c2.4,0,4.9,0,7.3,0c0.8,0,1.1-0.2,1.1-1c0-5.9,0-11.7,0-17.6c0-0.8-0.2-1-1-1c-5.9,0-11.8,0-17.6,0c-0.8,0-1,0.2-1,1
		c0,2.5,0,4.9,0,7.4V9c0,0.3-0.3,0.6-0.6,0.6h-6.5c-0.3,0-0.6-0.3-0.6-0.6V8.9c0-2.4,0-4.9,0-7.3c0-0.9-0.2-1.1-1.1-1.1
		c-5.8,0-11.6,0-17.5,0C1.2,0.5,1,0.7,1,1.6c0,5.8,0,11.7,0,17.5c0,0.9,0.2,1.1,1.1,1.1c2.4,0,4.9,0,7.3,0h0.1
		c0.3,0,0.6,0.3,0.6,0.6v6.5c0,0.3-0.3,0.6-0.6,0.6H9.4c-2.2,0-4.4,0-6.7,0c-1,0-1.7,0.8-1.7,1.7c0,5.6,0,11.2,0,16.8
		c0,0.9,0.2,1.1,1.2,1.1c5.8,0,11.6,0,17.3,0c1,0,1.2-0.2,1.2-1.2c0-2.4,0-4.9,0-7.3v0c0-0.3,0.3-0.6,0.6-0.6h6.5
		c0.3,0,0.6,0.3,0.6,0.6v0.1c0,2.4,0,4.9,0,7.3c0,1,0.2,1.1,1.1,1.1c5.8,0,11.6,0,17.4,0c0.9,0,1.1-0.2,1.1-1.1
		C48,40.6,48,34.8,48,28.9z M46.5,45.4c0,0.3-0.3,0.6-0.6,0.6H30.4c-0.3,0-0.6-0.3-0.6-0.6v0c0-2.4,0-4.9,0-7.3
		c0-0.9-0.2-1.1-1.1-1.1c-2.4,0-4.9,0-7.3,0h-0.1c-0.3,0-0.6-0.3-0.6-0.6v-0.1c0-2.4,0-4.9,0-7.3c0-0.9-0.2-1.1-1.1-1.1
		c-1.9,0-3.7,0-5.6,0c-0.1,0-0.2,0-0.3,0c-0.5,0-0.8,0.2-0.8,0.7c0,0.5,0.3,0.7,0.7,0.7c1,0,2,0,3,0c0.6,0,1.3,0,1.9,0
		c0.3,0,0.6,0.3,0.6,0.6v15.6c0,0.3-0.3,0.6-0.6,0.6H3c-0.3,0-0.6-0.3-0.6-0.6V29.9c0-0.3,0.3-0.6,0.6-0.6l0,0c2.4,0,4.9,0,7.3,0
		c0.9,0,1.1-0.2,1.1-1.1c0-2.4,0-4.9,0-7.3v-0.1c0-0.3,0.3-0.6,0.6-0.6h0.1c2.4,0,4.9,0,7.3,0c0.9,0,1.2-0.2,1.2-1.1
		c0-1.8,0-3.6,0-5.4c0-0.1,0-0.2,0-0.4c0-0.4-0.2-0.8-0.7-0.8c-0.5,0-0.7,0.3-0.7,0.8c0,1.3,0,2.7,0,4c0,0.3,0,0.6,0,0.8
		c0,0.3-0.3,0.6-0.6,0.6H3.1c-0.3,0-0.6-0.3-0.6-0.6V2.6C2.4,2.2,2.7,2,3.1,2h15.6c0.3,0,0.6,0.3,0.6,0.6v0.1c0,2.4,0,4.9,0,7.3
		c0,0.9,0.2,1.1,1.1,1.1c2.4,0,4.9,0,7.3,0h0.1c0.3,0,0.6,0.3,0.6,0.6V12c0,2.4,0,4.7,0,7.1c0,0.9,0.2,1.1,1.1,1.1
		c1.8,0,3.7,0,5.5,0c0.1,0,0.2,0,0.3,0l2.2,0c0,2.4,0,4.5,0,7v0.1c0,0.3-0.3,0.6-0.6,0.6h-0.1c-2.4,0-4.9,0-7.3,0
		c-0.9,0-1.1,0.2-1.1,1.1c0,1.9,0,3.8,0,5.7c0,0.5,0.2,0.8,0.7,0.8c0.5,0,0.7-0.4,0.7-0.8c0-0.1,0-0.3,0-0.4c0-1.5,0-2.9,0-4.4v0
		c0-0.3,0.3-0.6,0.6-0.6h15.6c0.3,0,0.6,0.3,0.6,0.6V45.4z"/>
</g>
</svg>
