<?xml version="1.0" encoding="utf-8"?>
<!-- Generator: Adobe Illustrator 24.0.0, SVG Export Plug-In . SVG Version: 6.00 Build 0)  -->
<svg version="1.1"
	 id="Ebene_1" xmlns:cc="http://creativecommons.org/ns#" xmlns:dc="http://purl.org/dc/elements/1.1/" xmlns:inkscape="http://www.inkscape.org/namespaces/inkscape" xmlns:rdf="http://www.w3.org/1999/02/22-rdf-syntax-ns#" xmlns:sodipodi="http://sodipodi.sourceforge.net/DTD/sodipodi-0.dtd" xmlns:svg="http://www.w3.org/2000/svg"
	 xmlns="http://www.w3.org/2000/svg" xmlns:xlink="http://www.w3.org/1999/xlink" x="0px" y="0px" viewBox="0 0 48 48"
	 style="enable-background:new 0 0 48 48;" xml:space="preserve">
<style type="text/css">
	.st0{fill:#4A4A4A;}
</style>
<sodipodi:namedview  bordercolor="#666666" borderopacity="1" gridtolerance="10" guidetolerance="10" id="namedview10" inkscape:current-layer="Ebene_1" inkscape:cx="5.4013602" inkscape:cy="31.335892" inkscape:pageopacity="0" inkscape:pageshadow="2" inkscape:window-height="805" inkscape:window-maximized="0" inkscape:window-width="1313" inkscape:window-x="172" inkscape:window-y="76" inkscape:zoom="6.2395833" objecttolerance="10" pagecolor="#ffffff" showgrid="false">
	</sodipodi:namedview>
<path id="path4855" inkscape:connector-curvature="0" class="st0" d="M1.9,47.9c-1-0.2-1.8-1-1.9-2.1c-0.1-1,0.4-1.9,1.3-2.3
	l0.5-0.2H24h22.2l0.5,0.2c1.8,0.9,1.7,3.5-0.2,4.3C46.2,48,44.3,48,24.2,48C12.2,48,2.1,48,1.9,47.9L1.9,47.9z M4.5,39.9
	c-0.2,0-0.4-0.2-0.5-0.3c-0.2-0.2-0.2-0.3-0.2-7.9v-7.6l0.3-0.2l0.3-0.2h3.2c2,0,3.3,0,3.4,0.1c0.5,0.3,0.5,0.1,0.5,8.1
	c0,7.2,0,7.5-0.2,7.7c-0.1,0.2-0.3,0.3-0.5,0.4C10.3,40,5,40,4.5,39.9L4.5,39.9z M15.5,39.9c-0.1,0-0.3-0.2-0.4-0.3l-0.2-0.2v-5.5
	v-5.5l0.3-0.3l0.3-0.3h3.2h3.2l0.2,0.2c0.1,0.1,0.3,0.4,0.3,0.5c0.1,0.5,0.1,10.2,0,10.6c-0.2,0.7-0.2,0.7-3.6,0.7
	C17,39.9,15.6,39.9,15.5,39.9L15.5,39.9z M26.4,39.9c-0.4-0.1-0.6-0.3-0.7-0.7c-0.1-0.2-0.1-4.2-0.1-11.7V16.2l0.3-0.3l0.3-0.3h3.1
	c2.2,0,3.2,0,3.4,0.1c0.6,0.2,0.5-0.6,0.5,12.1v11.6L33,39.6c-0.1,0.1-0.4,0.3-0.5,0.3C32.1,40,26.7,40,26.4,39.9L26.4,39.9z
	 M37.2,39.9c-0.2-0.1-0.4-0.2-0.5-0.4c-0.2-0.3-0.2-0.6-0.2-15.9c0-11.2,0-15.7,0.1-15.9C36.8,7,36.9,7,40.4,7c3.4,0,3.4,0,3.6,0.5
	c0.1,0.1,0.1,4.5,0.1,16c0,15.7,0,15.8-0.2,16c-0.1,0.1-0.3,0.3-0.5,0.3C43,40,37.6,40,37.2,39.9L37.2,39.9z M7.3,17.2
	c-3.1-1.3-5.8-2.4-5.9-2.5c-0.6-0.4-0.7-1.6-0.3-2.2c0.3-0.4,1-0.7,1.4-0.6c0.2,0,2.5,0.9,5.1,2s4.9,2,4.9,2c0.1,0,1-1.4,2.3-3.6
	c1.2-2,2.3-3.8,2.4-4c0.2-0.3,1-0.7,5.1-2.7c2.7-1.3,4.9-2.4,4.9-2.5c0,0-0.7-0.7-1.6-1.4C24.2,0.5,24,0.2,24.3,0
	c0.2-0.1,7.4-0.1,10.4,0C37,0.1,37,0.1,37.1,0.3c0,0.3-7.5,10-7.8,10.1c-0.3,0-0.3-0.1-0.4-2.4c-0.1-1-0.1-1.9-0.1-1.9
	s-2.1,1-4.6,2.2l-4.5,2.2l-2.5,4.1c-1.4,2.3-2.6,4.3-2.8,4.4c-0.3,0.3-0.7,0.5-1.2,0.5C13.1,19.6,10.5,18.5,7.3,17.2L7.3,17.2z"/>
</svg>
