<?xml version="1.0" encoding="utf-8"?>
<!-- Generator: Adobe Illustrator 24.0.0, SVG Export Plug-In . SVG Version: 6.00 Build 0)  -->
<svg version="1.1"
	 id="Ebene_1" inkscape:version="0.92.4 5da689c313, 2019-01-14" sodipodi:docname="top100_white.svg" xmlns:cc="http://creativecommons.org/ns#" xmlns:dc="http://purl.org/dc/elements/1.1/" xmlns:inkscape="http://www.inkscape.org/namespaces/inkscape" xmlns:rdf="http://www.w3.org/1999/02/22-rdf-syntax-ns#" xmlns:sodipodi="http://sodipodi.sourceforge.net/DTD/sodipodi-0.dtd" xmlns:svg="http://www.w3.org/2000/svg"
	 xmlns="http://www.w3.org/2000/svg" xmlns:xlink="http://www.w3.org/1999/xlink" x="0px" y="0px" viewBox="0 0 48 48"
	 style="enable-background:new 0 0 48 48;" xml:space="preserve">
<style type="text/css">
	.st0{fill:#FFFFFF;}
</style>
<sodipodi:namedview  bordercolor="#666666" borderopacity="1" gridtolerance="10" guidetolerance="10" id="namedview10" inkscape:current-layer="Ebene_1" inkscape:cx="5.3268427" inkscape:cy="20.989781" inkscape:pageopacity="0" inkscape:pageshadow="2" inkscape:window-height="805" inkscape:window-maximized="0" inkscape:window-width="1313" inkscape:window-x="263" inkscape:window-y="109" inkscape:zoom="6.9532167" objecttolerance="10" pagecolor="#ffffff" showgrid="false">
	</sodipodi:namedview>
<path id="path12388" inkscape:connector-curvature="0" class="st0" d="M21.3,48c-0.2,0-0.8-0.1-1.4-0.2c-1.3-0.2-3.3-0.7-4.3-1
	c-1.9-0.7-3.5-1.7-4.8-3.1c-1.8-1.8-2.8-3.8-3.4-6.4c-1.2-5.8,0.4-13.5,4.2-19.8c1.1-1.8,2.2-3.2,3.8-4.8l1.4-1.4h7.1h7.1l1.5,1.5
	c2.1,2,3.4,4,4.9,6.8c2.8,5.5,4,12.1,3.2,17c-0.3,1.6-0.6,2.7-1.2,4c-2,4-5.6,6.4-11.3,7.3c-0.7,0.1-1.8,0.2-3.7,0.2
	C22.8,48,21.5,48,21.3,48L21.3,48z M24.9,38.9V38l0.7-0.1c0.8-0.1,1.8-0.4,2.5-0.8c0.7-0.4,1.7-1.4,2.1-2c0.7-1.3,0.7-3.2,0.1-4.6
	c-0.6-1.3-2.3-2.3-4.9-3l-0.4-0.1v-2.4c0-2.2,0-2.4,0.2-2.3c0.1,0,0.4,0.1,0.7,0.2c0.7,0.2,1.7,0.6,2.3,1l0.5,0.3l0.8-1.2l0.8-1.2
	L30,21.6c-0.4-0.3-1.9-1-2.7-1.3c-0.4-0.1-1.1-0.3-1.6-0.4L25,19.9v-0.6v-0.6h-0.9h-0.9v0.6v0.6l-0.5,0.1c-0.9,0.1-1.7,0.3-2.3,0.6
	c-0.7,0.4-1.7,1.2-2.1,1.9c-1.1,1.7-1,4.2,0.3,5.6c0.8,0.9,2.2,1.6,3.9,2.1l0.7,0.2v2.5c0,1.7,0,2.5-0.1,2.5c-0.3,0-1.3-0.3-1.9-0.6
	c-0.5-0.2-1.5-0.9-2.2-1.4l-0.2-0.2L17.9,34c-0.7,0.9-0.9,1.1-0.8,1.2c0.2,0.3,1.9,1.3,2.7,1.7c0.8,0.4,2.1,0.8,3.1,0.9l0.4,0.1v0.9
	v0.9h0.8h0.8L24.9,38.9z M24.9,33v-2.3l0.3,0.1c0.4,0.1,1.3,0.5,1.7,0.8c0.6,0.5,0.9,1.5,0.5,2.3c-0.3,0.7-1.1,1.2-2.1,1.3l-0.4,0.1
	L24.9,33z M22.6,26.8c-0.8-0.3-1.4-0.7-1.6-1.1c-0.3-0.7-0.2-1.8,0.4-2.3c0.3-0.3,0.9-0.6,1.4-0.6l0.5-0.1v2.2c0,1.2,0,2.2,0,2.2
	C23.2,27,22.9,26.9,22.6,26.8L22.6,26.8z M16.9,8.6c-0.3-0.4-0.7-1.1-0.9-1.5c-0.8-1.4-1.3-3.5-1.2-4.4c0.1-1,0.8-2,1.8-2.4
	c0.8-0.4,1.2-0.4,2.8-0.1c2.9,0.5,6,0.5,8.5,0c1.5-0.3,2.5-0.3,3.1,0c0.7,0.3,1.3,0.9,1.6,1.6c0.2,0.5,0.3,0.7,0.2,1.5
	c-0.1,1.6-0.9,3.6-2.1,5.3l-0.5,0.7l-6.4,0l-6.4,0L16.9,8.6L16.9,8.6z"/>
</svg>
