<?xml version="1.0" encoding="utf-8"?>
<!-- Generator: Adobe Illustrator 24.0.0, SVG Export Plug-In . SVG Version: 6.00 Build 0)  -->
<svg version="1.1"
	 id="Ebene_1" inkscape:version="0.92.4 5da689c313, 2019-01-14" sodipodi:docname="whitelogo.svg" xmlns:cc="http://creativecommons.org/ns#" xmlns:dc="http://purl.org/dc/elements/1.1/" xmlns:inkscape="http://www.inkscape.org/namespaces/inkscape" xmlns:rdf="http://www.w3.org/1999/02/22-rdf-syntax-ns#" xmlns:sodipodi="http://sodipodi.sourceforge.net/DTD/sodipodi-0.dtd" xmlns:svg="http://www.w3.org/2000/svg"
	 xmlns="http://www.w3.org/2000/svg" xmlns:xlink="http://www.w3.org/1999/xlink" x="0px" y="0px" viewBox="0 0 417.3 138.2"
	 style="enable-background:new 0 0 417.3 138.2;" xml:space="preserve">
<style type="text/css">
	.st0{fill:#E6E6E6;}
</style>
<sodipodi:namedview  bordercolor="#666666" borderopacity="1" gridtolerance="10" guidetolerance="10" id="namedview1011" inkscape:current-layer="Ebene_1" inkscape:cx="205.75401" inkscape:cy="69.099998" inkscape:pageopacity="0" inkscape:pageshadow="2" inkscape:window-height="1028" inkscape:window-maximized="1" inkscape:window-width="1920" inkscape:window-x="0" inkscape:window-y="0" inkscape:zoom="3.1583993" objecttolerance="10" pagecolor="#ffffff" showgrid="false">
	</sodipodi:namedview>
<path class="st0" d="M70.3,33.1c0.4,0.3,0.8,0.6,1.2,0.9c0.9,1,1.8,2,2.8,3c0.2,0.2,0.4,0.3,0.6,0.5c2.1,1.4,2.3,0.8,4.1-0.4
	c0.8-0.5,1.4-1.2,2.1-1.7c0.2-0.1,0.4-0.2,0.6-0.3c0.1,0.1,0.1,0.1,0.2,0.2c-0.2,0.3-0.4,0.6-0.7,0.9c-0.8,0.8-1.7,1.5-2.6,2.3
	c-1,0.9-1.2,1.3-0.5,2.4c0.9,1.5,1.9,2.8,2.9,4.2c0.2,0.2,0.4,0.5,0.5,0.7c-0.1,0.1-0.1,0.1-0.2,0.2c-0.6-0.6-1.1-1.1-1.7-1.7
	c-0.5-0.5-0.9-1.1-1.4-1.6c-0.2-0.2-0.5-0.2-0.7-0.3c0,0.2-0.2,0.5-0.1,0.7c0.6,2.1,1.2,4.1,1.9,6.2c0.8,2.6,1.6,5.2,2.4,7.8
	c0.6,1.8,1.1,3.7,1.7,5.5c0.7,2.4,1.5,4.9,2.2,7.3c0.1,0.2,0.3,0.4,0.4,0.6c0.2-0.2,0.4-0.4,0.5-0.6c0.7-2.4,1.4-4.8,2.2-7.2
	c1-3.4,2-6.8,3-10.2c0.8-2.6,1.5-5.1,2.2-7.7c0.5-1.7,1-3.5,1.6-5.2c0.1-0.3,0.5-0.6,0.8-0.6c1.9-0.1,3.7,0,5.6,0
	c0.6,0,0.8,0.4,0.8,0.9c0.2,2.4,0.4,4.9,0.6,7.3c0.4,5,0.9,10,1.3,15c0.5,5.5,0.9,10.9,1.3,16.4c0.1,0.6-0.2,0.9-0.8,0.9
	c-1.1,0-2.2,0-3.2,0c-0.6,0-1-0.4-1-1.1c-0.1-1.1-0.2-2.3-0.3-3.4c-0.3-3-0.5-6-0.8-9.1c-0.2-2.7-0.4-5.4-0.6-8.1
	c-0.2-2.6-0.4-5.3-0.7-7.9c0-0.2,0-0.4-0.1-0.5c-0.1-0.2-0.2-0.3-0.4-0.4c-0.1,0.1-0.3,0.3-0.4,0.4c-0.8,2.7-1.5,5.4-2.3,8
	c-0.6,2.1-1.2,4.1-1.9,6.2c-0.5,1.6-1,3.3-1.5,4.9c-0.7,2.3-1.4,4.7-2.1,7c-0.3,1-0.6,2-0.9,3c-0.2,0.6-0.6,0.9-1.2,0.9
	c-1.2,0-2.4,0-3.6,0c-0.7,0-1-0.3-1.2-1c-0.9-3.1-1.9-6.3-2.9-9.4c-0.9-3-1.8-6-2.8-9c-0.8-2.5-1.6-5-2.3-7.5
	c-0.3-0.9-0.5-1.7-0.7-2.6c0-0.1,0-0.2-0.1-0.3c-0.2-0.2-0.4-0.4-0.6-0.5c-0.1,0.2-0.4,0.4-0.4,0.6c-0.1,1.1-0.1,2.2-0.2,3.4
	c-0.4,5.2-0.8,10.4-1.2,15.7c-0.2,3.1-0.4,6.3-0.6,9.4c-0.1,1.2-0.2,1.3-1.3,1.3c-1,0-1.9,0-2.9,0c-0.7,0-0.9-0.2-0.9-0.9
	c0.2-2.3,0.4-4.6,0.5-6.9c0.3-3.5,0.5-6.9,0.7-10.4c0.2-3.4,0.5-6.7,0.7-10.1c0.1-1,0.1-1.9,0.2-2.9c0.2-2.8,0.4-5.6,0.6-8.4
	c0.1-0.8,0.2-0.9,1.1-1c0.9,0,1.8,0,2.8,0c0.4,0,0.8-0.2,1.2-0.4c-0.2-0.4-0.2-0.8-0.5-1.1c-1-1.2-2-2.4-3-3.6
	c-0.1-0.2-0.2-0.4-0.3-0.6C70.2,33.3,70.2,33.2,70.3,33.1z"/>
<path class="st0" d="M177.1,58.3c0.3-0.1,0.7-0.2,1-0.2c1.7-0.1,3.5-0.2,5.2-0.3c0.9-0.1,1.9-0.1,2.8-0.2c0.9-0.1,0.9-0.2,0.5-0.9
	c-0.1-0.1-0.1-0.3-0.2-0.6c0.5,0.2,0.9,0.2,1.3,0.4c0.5,0.2,0.8,0.1,0.9-0.4c0.1-0.6,0.3-1.2,0.3-1.8c0.1-2.9,0.1-5.8,0.1-8.8
	c0-4.1,3.2-6.5,6.7-6.5c2.7,0,5.4,0.2,8.1,0.3c3.1,0.1,6.1,0.3,9.2,0.5c1.3,0.1,1.4,0.2,1.3,1.4c0,0.6,0,1.2,0,1.7
	c0,0.6-0.3,0.9-0.9,0.9c-1.9,0-3.8,0-5.7,0c-3.7,0-7.3,0-11,0c-1.6,0-2.6,0.9-2.6,2.5c0,2.8,0.1,5.7,0.1,8.5c0,0.3,0,0.6-0.1,0.9
	c-0.1,0.9,0.1,1.2,1,1.2c2.6,0.1,5.3,0.2,7.9,0.2c2.6,0.1,5.3,0.2,7.9,0.3c1,0,1.1,0.2,1.1,1.2c0,0.5,0,1.1,0,1.6
	c0,0.9-0.2,1.1-1.1,1.1c-1.3,0.1-2.5,0.1-3.8,0.1c-3.4,0.1-6.8,0.2-10.2,0.3c-0.6,0-1.3,0.1-1.9,0.2c-0.6,0.1-0.8,0.4-0.8,0.9
	c0,3,0,6.1,0,9.1c0,2,0.8,2.7,2.8,2.7c5.4,0,10.7,0,16.1,0c1.2,0,1.3,0.1,1.3,1.4c0,0.5,0,1,0,1.6c0,0.7-0.2,1-0.9,1
	c-2,0.1-4.1,0.3-6.1,0.4c-3.2,0.2-6.4,0.4-9.6,0.5c-1.4,0-2.8-0.1-4.2-0.3c-2.1-0.4-4-2.3-4.3-4.7c-0.1-0.8-0.2-1.6-0.2-2.3
	c-0.1-3.4-0.1-6.7-0.2-10.1c0-0.5-0.2-1.1-0.3-1.6c-0.1-0.4-0.4-0.5-0.8-0.4c-0.2,0.1-0.5,0.1-0.8,0.1c-0.1-1-0.1-1.1-1.1-1.2
	c-1-0.1-1.9-0.2-2.9-0.2c-1.9-0.1-3.7-0.2-5.6-0.3c-0.1,0-0.2,0-0.4-0.1C177.1,58.4,177.1,58.4,177.1,58.3z"/>
<path class="st0" d="M269.5,43.5c-2.8,0-5.6,0-8.4,0c-2,0-3.3,1.1-3.7,3c-0.2,0.9-0.2,1.8-0.3,2.7c0,1.3,0,2.6,0,3.9
	c0,0.1,0,0.1,0,0.2c0.4,2.4,1.1,3.4,3.6,3.6c2.8,0.2,5.6,0.1,8.4,0.1c1.2,0,2.4,0.1,3.5,0.3c2.3,0.4,4.1,1.6,5.2,3.7
	c0.8,1.5,1.1,3.2,1.2,4.9c0.1,1.8,0.1,3.7,0,5.5c-0.2,2.5-0.9,4.9-3.1,6.5c-1.4,1-3,1.5-4.7,1.8c-2.9,0.4-5.9,0.2-8.8-0.1
	c-1.9-0.2-3.8-0.3-5.8-0.5c-0.9-0.1-1.8-0.3-2.7-0.4c-0.5-0.1-0.7-0.4-0.7-0.8c0-0.8,0-1.7,0-2.5c0-0.6,0.4-0.7,0.9-0.7
	c2,0.2,4.1,0.4,6.1,0.4c3.3,0.1,6.6,0.4,9.8-0.2c0.9-0.2,1.8-0.6,2.6-1.2c1-0.7,1.3-1.8,1.3-2.9c0-1.7,0-3.4-0.1-5.1
	c-0.2-2.4-1.7-3.7-4.1-3.7c-2.9,0-5.8,0.1-8.8-0.1c-1.4-0.1-2.8-0.3-4.1-0.8c-3.1-1.1-4.5-3.6-4.7-6.7c-0.2-2.7-0.1-5.4,0-8.1
	c0.1-2,0.8-3.9,2.4-5.3c1-0.9,2.3-1.5,3.7-1.9c2.9-0.8,5.8-0.7,8.8-0.4c3,0.3,6,0.7,9,1c1.3,0.1,1.5,0.3,1.5,1.6c0,0.6,0,1.1,0,1.7
	c0,0.6-0.2,0.8-0.9,0.8C274.3,43.8,271.9,43.7,269.5,43.5C269.5,43.6,269.5,43.6,269.5,43.5z"/>
<path class="st0" d="M237.1,43.5c-2.5,0-4.9,0-7.4,0c-1.3,0-2.7,0.3-3.6,1.4c-0.7,0.9-1,2.1-1,3.2c0,1.7,0,3.4,0.1,5.1
	c0,0.2,0,0.5,0.1,0.7c0.4,2,1.2,2.6,3.6,3c1.2,0.2,2.4,0.1,3.6,0.1c1.9,0,3.9,0,5.8,0c1.6,0,3.2,0.3,4.6,1c2,1.1,3.3,2.8,3.7,5
	c0.7,3.5,0.7,7.1,0,10.6c-0.5,2.4-1.9,4.1-4.2,5.1c-2.4,1.1-5,1.2-7.5,1.1c-3.2-0.2-6.5-0.5-9.7-0.8c-1-0.1-2-0.3-3.1-0.5
	c-0.5-0.1-0.7-0.3-0.7-0.8c0-0.8,0-1.5,0-2.3c0-0.7,0.3-0.9,1-0.8c4.5,0.4,9,0.7,13.5,0.5c1.6-0.1,3.2-0.2,4.5-1.1
	c0.9-0.7,1.6-1.6,1.6-2.8c0.1-1.8,0.1-3.6,0-5.4c-0.1-0.8-0.4-1.7-0.9-2.4c-0.7-1.1-1.8-1.5-3.1-1.5c-2.8,0-5.5,0-8.3,0
	c-1.9,0-3.8-0.3-5.6-1.2c-1.8-0.9-3-2.3-3.5-4.2c-0.9-3.8-0.8-7.6-0.2-11.4c0.5-3.3,2.8-5.1,5.9-6c2.8-0.8,5.7-0.7,8.5-0.4
	c3.1,0.2,6.2,0.7,9.4,1c1.2,0.1,1.3,0.3,1.3,1.5c0,0.6,0,1.2,0,1.8c0,0.7-0.2,0.9-0.9,0.9C242.1,43.8,239.6,43.7,237.1,43.5
	C237.1,43.5,237.1,43.5,237.1,43.5z"/>
<path class="st0" d="M330.7,74.2c0.3-5.2,0.6-10.4,1-15.5c0.2-2.4,0.5-4.8,1-7.2c0.3-1.3,1-2.6,1.7-3.7c1.6-2.4,3.9-3.9,6.3-5.2
	c1.7-0.9,3.6-1.6,5.4-2.3c0.8-0.3,1.6-0.6,2.4-0.9c0.2-0.1,0.4-0.1,0.6-0.1c0.7-0.1,1,0.2,0.7,0.9c-1.3,3.3-2.5,6.7-3.8,9.9
	c-1.6,3.8-3.3,7.6-5,11.4c-1,2.2-2,4.4-3.1,6.6c-1.7,3.1-3.5,6.2-5.3,9.2c-0.3,0.5-0.7,0.9-1.1,1.3c-0.1,0.2-0.4,0.2-0.6,0.3
	c-0.1-0.2-0.2-0.5-0.3-0.7C330.8,76.8,330.8,75.5,330.7,74.2C330.8,74.2,330.8,74.2,330.7,74.2z"/>
<path class="st0" d="M328,72.9c0,1.2,0,3.3,0,5.3c0,0.2-0.1,0.4-0.2,0.6c-0.2-0.1-0.5-0.1-0.6-0.3c-0.9-1.3-1.9-2.6-2.7-4
	c-1.6-2.7-3.1-5.5-4.5-8.3c-1.5-3-2.8-6-4.2-9c-1-2.2-1.9-4.4-2.9-6.6c-0.8-2-1.6-4.1-2.4-6.2c-0.5-1.3-1-2.6-1.4-3.9
	c-0.1-0.2-0.1-0.4-0.2-0.6c-0.1-0.6,0.1-0.8,0.7-0.7c0.7,0.2,1.4,0.4,2.1,0.6c2.2,0.9,4.4,1.8,6.5,2.8c2.5,1.2,4.7,2.9,6.3,5.2
	c1.2,1.7,1.7,3.7,1.9,5.7c0.4,3.5,0.7,7,1,10.4C327.8,66.8,327.9,69.4,328,72.9z"/>
<path class="st0" d="M140.4,61.7c0,5.6,0,11.2,0,16.8c0,0.8-0.2,1-0.9,1c-1,0-2.1,0-3.1,0c-0.8,0-1-0.2-1-1c0-1.7,0-3.4,0-5.1
	c0-9.5,0-19,0-28.5c0-0.9-0.2-1.2-1.2-1.2c-3.1,0-6.2,0-9.4,0c-1,0-1.2-0.2-1.2-1.2c0-0.9,0-1.7,0-2.6c0-0.8,0.3-1,1.2-1
	c6.6,0,13.3,0,19.9,0c2.3,0,4.5,0,6.8,0c0.9,0,1.1,0.2,1.1,1.1c0,0.8,0,1.7,0,2.5c0,1-0.2,1.2-1.2,1.2c-3.2,0-6.4,0-9.6,0
	c-1.1,0-1.2,0.2-1.2,1.3C140.4,50.6,140.4,56.2,140.4,61.7C140.4,61.7,140.4,61.7,140.4,61.7z"/>
<path class="st0" d="M24,56.6c0-5.5,0-11,0-16.5c0-0.9,0.2-1.1,1.1-1.1c1,0,2,0,3,0c0.7,0,0.9,0.2,0.9,1c0,2.5,0,5,0,7.5
	c0,8.2,0,16.4,0,24.6c0,1.6,0.8,2.5,2.5,2.7c0.7,0.1,1.4,0.1,2.1,0.1c3.7,0,7.5,0,11.2-0.1c1.1,0,2.2,0,3.3,0.1
	c0.5,0,0.8,0.2,0.8,0.8c0,1,0,2,0,3c0,0.7-0.2,0.9-0.9,0.9c-4.8,0-9.6,0-14.4,0c-1.7,0-3.3-0.1-5-0.4c-2.3-0.5-3.8-1.7-4.3-4.3
	c-0.2-1.1-0.3-2.2-0.3-3.3C24,66.6,24,61.6,24,56.6C24,56.6,24,56.6,24,56.6z"/>
<path class="st0" d="M158.2,56.5c0-5.4,0-10.8,0-16.2c0-1.1,0.2-1.3,1.3-1.3c0.9,0,1.7,0,2.6,0c0.9,0,1.1,0.2,1.1,1.2
	c0,3.5,0,7.1,0,10.6c0,7,0,14,0,21c0,2.1,0.7,3,2.8,3c4.7,0.1,9.3,0.1,14,0.1c0.7,0,1.4,0,2.1,0c0.6,0,0.9,0.3,0.9,0.9
	c0,1,0,1.9,0,2.9c0,0.7-0.3,0.9-0.9,0.9c-1.2,0-2.4,0-3.6,0c-2.6,0-5.2,0-7.7,0c-2.4,0-4.9,0-7.3-0.2c-1.6-0.1-3.1-0.8-4.1-2.2
	c-0.4-0.7-0.8-1.5-0.9-2.3c-0.2-1.1-0.3-2.3-0.3-3.4C158.1,66.4,158.2,61.4,158.2,56.5C158.2,56.5,158.2,56.5,158.2,56.5z"/>
<path class="st0" d="M54.9,59.3c0-5.3,0-10.6,0-15.9c0-1.1,0-2.3,0-3.4c0-0.7,0.3-0.9,0.9-1c1.1,0,2.1,0,3.2,0c0.7,0,1,0.3,1,1
	c0,1.3,0,2.6,0,3.8c0,11.5,0,23,0,34.6c0,0.9-0.2,1.1-1.1,1.2c-0.9,0-1.9,0-2.8,0c-0.9,0-1.1-0.2-1.1-1.1
	C54.9,72,54.9,65.7,54.9,59.3C54.9,59.3,54.9,59.3,54.9,59.3z"/>
<path class="st0" d="M118,59.2c0,6.2,0,12.5,0,18.7c0,0.2,0,0.4,0,0.6c0,0.7-0.2,1-1,1c-1,0-2,0-3,0c-0.7,0-1-0.2-1-0.9
	c0-1.1,0-2.2,0-3.3c0-4.8,0-9.6,0-14.4c0-6.1,0-12.2,0-18.3c0-0.9,0-1.7,0-2.6c0-0.8,0.2-1,1-1c0.9,0,1.8,0,2.8,0
	c1.1,0,1.2,0.1,1.2,1.2c0,6.2,0,12.4,0,18.5C118,58.9,118,59.1,118,59.2C118,59.2,118,59.2,118,59.2z"/>
<path class="st0" d="M360.8,59.3c0,6.4,0,12.8,0,19.2c0,0.8-0.1,1-0.9,1c-1,0-2,0.1-3,0.1c-0.8,0-1-0.2-1-1c0-1,0-1.9,0-2.9
	c0-11.8,0-23.6,0-35.5c0-1.1,0.1-1.2,1.1-1.2c0.9,0,1.8,0,2.8,0c0.8,0,1,0.2,1,0.9c0,1.2,0,2.4,0,3.6
	C360.8,48.8,360.8,54,360.8,59.3C360.8,59.3,360.8,59.3,360.8,59.3z"/>
<path class="st0" d="M227.8,93.6c0.6,0,1.3,0,1.9,0c0.2,0,0.4,0.2,0.6,0.2c-0.1,0.2-0.1,0.4-0.3,0.5c-0.4,0.3-0.5,0.7-0.3,1.1
	c0.3,0.9,0,1.7-0.4,2.4c-0.2,0.4-0.8,0.7-1.3,0.8c-0.6,0.1-1.3,0.1-2,0.1c-0.2,0-0.4-0.1-0.6,0c-0.2,0.2-0.4,0.4-0.6,0.6
	c0.2,0.2,0.4,0.4,0.6,0.5c0.9,0.1,1.8,0,2.8,0c0.6,0,1.1,0.1,1.5,0.7c0.6,0.8,0.6,2.8-0.2,3.5c-0.3,0.3-0.9,0.5-1.3,0.5
	c-0.7,0.1-1.4,0-2.1,0c-2.2,0-2.8-1.8-2.2-3.4c0.2-0.5,0.2-0.9,0-1.3c-0.1-0.3-0.1-0.8,0.1-1.1c0.3-0.5,0.3-1,0-1.5
	c-0.9-1.7,0.4-3.7,2.2-3.7C226.8,93.6,227.3,93.6,227.8,93.6C227.8,93.6,227.8,93.6,227.8,93.6z M226.8,100.8
	C226.8,100.8,226.8,100.8,226.8,100.8c-0.2,0-0.5,0-0.7,0c-1.2,0-1.4,0.2-1.4,1.4c0,0.2,0,0.3,0,0.5c0.1,0.7,0.5,1.1,1.2,1.2
	c0.6,0,1.2,0,1.8,0c1.1,0,1.5-0.4,1.6-1.5c0-1.1-0.4-1.6-1.5-1.6C227.4,100.8,227.1,100.8,226.8,100.8z M226.7,98
	c0.3,0,0.7-0.1,1-0.1c0.6-0.1,1.1-0.8,1.1-1.5c0.1-1-0.2-1.5-0.9-1.7c-0.6-0.1-1.3-0.1-1.9-0.1c-0.7,0-1.1,0.4-1.3,1
	C224.4,96.9,225.2,98,226.7,98z"/>
<path class="st0" d="M111.4,91.7c-0.4,0-0.9-0.1-1.3,0c-0.7,0.1-1,0.6-0.6,1.2c0.9,1.3,1.9,2.6,2.8,3.9c0.1,0.1,0.2,0.2,0.3,0.4
	c0.4,0.5,0.8,0.6,1.3,0.1c0,0,0.1-0.1,0.1-0.1c0.2-0.1,0.5-0.3,0.7-0.4c0,0.3,0,0.6-0.1,0.8c-0.1,0.2-0.2,0.4-0.4,0.5
	c-0.4,0.4-0.3,0.8,0,1.2c0.2,0.3,0.5,0.5,0.6,0.8c0.1,0.2,0,0.4,0,0.6c-0.2,0-0.5,0.1-0.6,0c-0.3-0.2-0.5-0.5-0.7-0.7
	c-0.3-0.4-0.7-0.5-1.1-0.1c-0.3,0.3-0.6,0.6-1,0.8c-1,0.6-2.4,0.3-3.3-0.7c-0.9-1-1-2.4-0.3-3.4c0.3-0.4,0.7-0.8,1.1-1.1
	c0.6-0.5,0.7-0.9,0.2-1.5c-0.2-0.3-0.5-0.6-0.6-1c-0.4-0.9,0.2-2.1,1.1-2.2c1-0.1,2,0,3,0c0.2,0,0.3,0.3,0.5,0.4
	c-0.2,0.1-0.4,0.3-0.6,0.3C112.1,91.7,111.7,91.7,111.4,91.7C111.4,91.7,111.4,91.7,111.4,91.7z M110.5,100.1c0.3-0.2,0.9-0.6,1.4-1
	c0.4-0.3,0.4-0.7,0-1.1c-0.3-0.4-0.7-0.8-1-1.2c-0.7-1-1-1-1.9-0.2c-0.1,0.1-0.2,0.2-0.3,0.3c-0.5,0.5-0.9,1.1-0.5,1.9
	C108.7,99.5,109.3,100,110.5,100.1z"/>
<path class="st0" d="M178,93.8c0.6,0.1,2.1,0,2.8-0.2c0.8-0.2,1.6-0.2,2.2,0.4c0.6,0.5,1.2,0.5,1.8,0.1c0.8-0.5,1.7-0.7,2.6-0.4
	c1,0.4,1.6,1.1,1.6,2.3c0,1.5,0,2.9,0,4.4c0,0.2-0.3,0.4-0.4,0.6c-0.1-0.2-0.4-0.4-0.4-0.6c0-1.3,0-2.5,0-3.8c0-1.6-1-2.3-2.5-1.9
	c-0.3,0.1-0.5,0.1-0.8,0.2c-0.6,0.2-0.9,0.6-0.9,1.2c0,1.2,0,2.5,0,3.7c0,0.2,0.1,0.4,0,0.6c-0.1,0.2-0.3,0.4-0.5,0.6
	c-0.1-0.2-0.3-0.4-0.3-0.6c0-1.2,0-2.5,0-3.7c0-0.2,0-0.4,0-0.6c0-0.7-0.3-1.1-1-1.3c-1-0.3-1.9,0-2.7,0.5c-0.3,0.2-0.4,0.8-0.5,1.2
	c-0.1,1.2,0,2.5,0,3.7c0,0.4,0.1,0.8-0.5,0.8c-0.5,0-0.5-0.4-0.5-0.8c0-1.8,0-3.6,0-5.5C177.9,94.3,177.9,94.1,178,93.8z"/>
<path class="st0" d="M222.4,100.5c-0.1,0.1-0.2,0.3-0.3,0.3c-0.2,0-0.6-0.1-0.7-0.3c-0.2-0.4-0.4-0.9-0.5-1.4c-0.2-0.7-0.5-1-1.3-1
	c-0.8,0-1.7,0-2.5,0c-0.5,0-0.9,0.2-1,0.7c-0.2,0.5-0.4,1-0.5,1.5c-0.1,0.5-0.4,0.7-0.9,0.6c-0.5-0.2-0.3-0.5-0.2-0.8
	c1.1-2.9,2.2-5.7,3.3-8.6c0.1-0.2,0.4-0.5,0.6-0.4c0.3,0.1,0.6,0.3,0.7,0.6c0.4,0.8,0.7,1.7,1,2.6c0.7,2,1.5,4.1,2.2,6.1
	C222.4,100.3,222.4,100.3,222.4,100.5z M218.4,97.1C218.4,97.1,218.4,97.1,218.4,97.1c0.2,0,0.4,0,0.6,0c1,0,1.2-0.3,0.8-1.3
	c-0.3-0.7-0.5-1.5-0.8-2.2c-0.1-0.3-0.3-0.4-0.5-0.7c-0.2,0.2-0.5,0.4-0.6,0.7c-0.3,0.7-0.5,1.4-0.7,2.1c-0.5,1.2-0.3,1.4,1,1.4
	C218.2,97.1,218.3,97.1,218.4,97.1z"/>
<path class="st0" d="M37.8,95.8c0-1.3,0-2.7,0-4c0-0.9,0.2-1,1-1c1.1,0,2.2,0,3.4,0c1.2,0,2,0.8,2.1,2c0.1,1,0.2,1.9-0.3,2.9
	c-0.4,0.7-1,0.9-1.6,1c-0.6,0-1.3-0.1-1.9-0.1c-0.3,0-0.6,0-0.9-0.1c-0.5,0-0.7,0.2-0.7,0.7c0,1,0,1.9,0,2.9c0,0.4-0.1,0.7-0.6,0.6
	c-0.2,0-0.4-0.4-0.4-0.7C37.8,98.7,37.8,97.3,37.8,95.8C37.8,95.8,37.8,95.8,37.8,95.8z M38.7,93.7c0,0.4,0,0.8,0,1.2
	c0,0.5,0.2,0.8,0.7,0.8c0.9,0,1.8,0.1,2.8,0c0.8-0.1,1.2-0.6,1.2-1.4c0-0.9,0.2-1.9-0.9-2.5c-0.2-0.1-0.5-0.1-0.7-0.1
	c-0.6,0-1.2,0-1.8,0c-1.3,0-1.4,0.1-1.4,1.4C38.7,93.3,38.7,93.5,38.7,93.7z"/>
<path class="st0" d="M124,91.7c-0.5,0-1,0-1.5,0c-0.8,0-1.1,0.3-1.1,1.1c0,0.5,0,1,0,1.5c0,0.8,0.3,1.1,1.1,1.2c0.8,0,1.5,0,2.3,0
	c0.2,0,0.4,0,0.6,0c0.2,0.1,0.3,0.3,0.4,0.4c-0.2,0.1-0.3,0.3-0.5,0.3c-0.9,0.1-1.8,0.1-2.8,0.1c-0.9,0-1.2,0.3-1.1,1.2
	c0,0.4,0,0.9,0.1,1.3c0.1,0.9,0.4,1.2,1.2,1.2c0.9,0,1.9,0,2.8,0c0.1,0,0.3,0,0.4,0c0.2,0.1,0.3,0.2,0.5,0.4
	c-0.2,0.1-0.3,0.3-0.5,0.3c-0.8,0.1-1.7,0.2-2.5,0.2c-0.4,0-0.9,0-1.3,0c-0.9-0.1-1.4-0.5-1.5-1.4c-0.1-0.3-0.1-0.6-0.1-0.9
	c0-2,0-4.1,0-6.1c0-1.1,0.6-1.8,1.7-1.8c1.2,0,2.4,0.1,3.6,0.1c0.2,0,0.4,0.2,0.5,0.4c-0.2,0.1-0.4,0.4-0.6,0.4
	C125.2,91.7,124.6,91.7,124,91.7C124,91.7,124,91.7,124,91.7z"/>
<path class="st0" d="M96.5,97.3c0-0.5,0-0.9,0-1.4c0.1-1.3,0.9-2.2,2.2-2.3c0.7-0.1,1.4-0.1,2.1,0c0.8,0.1,1.4,0.6,1.6,1.5
	c0.2,0.8,0.2,1.7-0.6,2.3c-0.3,0.2-0.6,0.3-0.9,0.3c-0.8,0.1-1.5,0-2.3,0c-0.5,0-1,0-1.2,0.6c-0.1,0.6,0.4,1.5,0.9,1.5
	c0.8,0.1,1.7,0.1,2.5,0.1c0.4,0,1-0.3,1.1,0.3c0.1,0.6-0.6,0.6-1,0.6c-1,0-2,0.1-2.9-0.1c-1-0.2-1.4-1.1-1.5-2
	C96.5,98.3,96.6,97.8,96.5,97.3C96.6,97.3,96.5,97.3,96.5,97.3z M99.4,96.9C99.4,96.9,99.4,96.9,99.4,96.9c0.4,0,0.8,0,1.1,0
	c0.5,0,0.9-0.3,1-0.8c0.1-0.5,0-1-0.5-1.3c-0.7-0.5-2.4-0.5-3,0.1c-0.3,0.4-0.5,1-0.5,1.5c0,0.5,0.6,0.5,1.1,0.5
	C98.9,96.9,99.2,96.9,99.4,96.9z"/>
<path class="st0" d="M144,97.8c-0.3,0-0.6,0-0.9,0c-0.5,0-1,0-1.1,0.6c-0.1,0.5,0.3,1.3,0.7,1.5c0.4,0.1,0.8,0.2,1.2,0.2
	c0.7,0,1.5,0,2.2,0c0.2,0,0.3,0.2,0.5,0.3c-0.1,0.1-0.2,0.4-0.4,0.4c-1.3,0.4-2.7,0.5-4,0c-0.7-0.2-1.1-0.9-1.1-1.6
	c-0.1-1.2-0.1-2.4,0-3.6c0.1-1.1,0.8-1.8,2-1.9c0.8-0.1,1.6-0.1,2.3,0c1,0.2,1.6,1.1,1.6,2.3c-0.1,1.2-0.6,1.8-1.8,1.9
	C144.9,97.8,144.4,97.8,144,97.8C144,97.8,144,97.8,144,97.8z M144.1,96.8C144.1,96.8,144.1,96.8,144.1,96.8c0.4,0,0.8,0,1.1,0
	c0.7-0.1,1.1-0.6,0.9-1.3c-0.1-0.7-0.6-1-1.3-1.1c-0.5,0-1.1,0-1.7,0.1c-0.8,0.2-1.3,0.8-1.2,1.6c0,0.2,0.3,0.6,0.6,0.6
	C143.1,96.9,143.6,96.8,144.1,96.8z"/>
<path class="st0" d="M165.7,97.8c0,0.8,0,1.6,0,2.4c0,0.6-0.3,0.8-0.8,0.4c-0.5-0.4-0.9-0.3-1.4,0c-0.6,0.3-1.3,0.4-2,0.5
	c-1,0-1.7-0.7-1.8-1.8c0-0.9-0.1-1.8,0.8-2.4c0.3-0.1,0.6-0.3,0.9-0.3c0.7,0,1.4,0,2.2,0c0.4,0,0.9,0.1,1-0.5
	c0.1-0.6,0.1-1.2-0.5-1.5c-0.3-0.2-0.7-0.2-1.1-0.3c-0.8,0-1.6,0.1-2.4,0.1c-0.2,0-0.3-0.1-0.5-0.2c0.1-0.2,0.1-0.4,0.3-0.5
	c0.6-0.4,3.6-0.3,4.2,0.1c0.6,0.4,0.9,1,0.9,1.7C165.7,96.3,165.7,97,165.7,97.8C165.7,97.8,165.7,97.8,165.7,97.8z M163.1,97.4
	C163.1,97.3,163.1,97.3,163.1,97.4c-0.6,0-1.1,0-1.7,0.2c-0.7,0.2-0.9,0.9-0.7,1.7c0.2,0.7,0.7,0.9,1.3,0.8c0.7-0.1,1.4-0.3,2.1-0.5
	c0.7-0.2,0.9-0.8,0.7-1.6c-0.1-0.7-0.6-0.7-1.1-0.6C163.4,97.4,163.3,97.4,163.1,97.4z"/>
<path class="st0" d="M69.1,100c0.5,0,1.1,0,1.6,0c0.1,0,0.3,0.1,0.3,0.3c0,0.1-0.1,0.2-0.2,0.3c-0.8,0.6-3.9,0.4-4.7-0.3
	c-0.8-0.7-0.7-1.6-0.7-2.4c-0.1-0.8,0.1-1.5,0.1-2.3c0-1.2,1-2,1.9-2c0.8-0.1,1.6-0.2,2.4,0c1.2,0.3,1.6,1,1.6,2.6
	c0,0.9-0.7,1.5-1.8,1.6c-0.7,0-1.4,0-2.1,0c-0.4,0-0.9-0.1-1.1,0.5c-0.2,0.5,0.1,1.3,0.6,1.5c0.5,0.2,1,0.2,1.5,0.3
	C68.7,100.1,68.9,100.1,69.1,100C69.1,100.1,69.1,100,69.1,100z M68.3,96.9C68.3,96.9,68.3,96.9,68.3,96.9c0.4,0,0.7,0,1.1,0
	c0.5,0,1-0.2,1.1-0.8c0.1-0.6-0.1-1.1-0.6-1.4c-1-0.5-2-0.4-2.9,0.2c-0.5,0.3-0.6,0.9-0.5,1.5c0.1,0.6,0.7,0.5,1.1,0.5
	C67.8,96.9,68,96.9,68.3,96.9z"/>
<path class="st0" d="M235.1,100.1c0.4,0,0.9-0.1,1.3-0.1c0.2,0,0.3,0.2,0.5,0.3c-0.1,0.1-0.2,0.4-0.4,0.4c-1.2,0.4-2.5,0.5-3.8,0.1
	c-0.4-0.1-0.9-0.6-1.1-1.1c-0.6-1.6-0.6-3.2,0-4.8c0.3-0.8,0.9-1.2,1.6-1.2c0.8-0.1,1.7-0.1,2.5,0c1,0.1,1.6,1.3,1.5,2.5
	c-0.1,0.9-0.7,1.5-1.7,1.6c-0.7,0-1.5,0-2.2,0c-0.5,0-1-0.1-1.1,0.6c-0.1,0.7,0.2,1.4,0.8,1.5C233.7,100.1,234.4,100.1,235.1,100.1
	C235.1,100.1,235.1,100.1,235.1,100.1z M234.2,96.9c0.4,0,0.7-0.1,1.1-0.1c0.5,0,0.9-0.2,1-0.7c0.1-0.6,0-1.1-0.6-1.4
	c-0.8-0.4-1.6-0.3-2.4-0.1c-0.7,0.2-1.2,0.8-1.2,1.5c0,0.5,0.2,0.8,0.7,0.8C233.4,96.9,233.8,96.9,234.2,96.9z"/>
<path class="st0" d="M193.3,97.8c-0.4,0-0.9,0-1.3,0c-0.5,0-0.8,0.3-0.7,0.9c0.1,0.9,0.8,1.5,1.8,1.5c0.7,0,1.5-0.1,2.2-0.1
	c0.2,0,0.4,0.2,0.6,0.3c-0.2,0.2-0.3,0.5-0.5,0.5c-1,0.1-2,0.2-3,0.1c-0.9,0-1.5-0.6-1.7-1.5c-0.4-1.5-0.4-3,0.1-4.5
	c0.3-0.9,1.1-1.3,2-1.4c0.7-0.1,1.5,0,2.2,0.1c1,0.2,1.7,1.3,1.5,2.4c-0.1,1.1-0.7,1.6-1.8,1.7C194.2,97.8,193.8,97.8,193.3,97.8
	C193.3,97.8,193.3,97.8,193.3,97.8z M193.3,96.9C193.3,96.9,193.3,96.9,193.3,96.9c0.4,0,0.8,0,1.1,0c0.6,0,0.9-0.3,1-0.8
	c0.1-0.6-0.1-1-0.5-1.3c-0.6-0.4-2.5-0.4-2.9,0.2c-0.3,0.4-0.5,1-0.5,1.5c0,0.6,0.7,0.5,1.1,0.5C192.8,96.9,193,96.9,193.3,96.9z"/>
<path class="st0" d="M33.2,91.3c-0.4,1.1-0.7,2-1.1,3c-0.7,2-1.5,4-2.2,5.9c-0.1,0.3-0.5,0.6-0.7,0.6c-0.3,0-0.6-0.3-0.7-0.6
	c-1-2.7-1.9-5.3-2.9-8c-0.1-0.2-0.2-0.4-0.2-0.6c0-0.2,0.1-0.5,0.2-0.7c0.2,0.2,0.6,0.3,0.7,0.5c0.3,0.6,0.5,1.2,0.7,1.8
	c0.5,1.6,1.1,3.1,1.6,4.7c0,0.1,0.1,0.2,0.1,0.3c0.2,0.2,0.3,0.4,0.5,0.4c0.2,0,0.4-0.3,0.5-0.5c0.5-1.3,0.9-2.6,1.4-3.8
	c0.4-1,0.7-2.1,1.2-3.1c0.1-0.2,0.4-0.3,0.6-0.4C33,90.9,33.1,91.2,33.2,91.3z"/>
<path class="st0" d="M87.1,104c0.3-0.7,0.5-1.3,0.8-1.9c0.2-0.6,0.2-1-0.4-1.3c-0.7-0.4-0.9-1.1-1.1-1.8c-0.5-1.5-1-3-1.4-4.5
	c-0.1-0.2,0.1-0.5,0.2-0.8c0.2,0.2,0.6,0.3,0.7,0.5c0.3,0.9,0.6,1.7,0.9,2.6c0.3,0.8,0.5,1.6,0.8,2.4c0.1,0.3,0.5,0.5,0.7,0.7
	c0.2-0.2,0.5-0.4,0.6-0.7c0.4-0.9,0.6-1.9,0.9-2.8c0.3-0.8,0.5-1.6,0.9-2.3c0.1-0.2,0.5-0.3,0.7-0.4c0,0.3,0.2,0.6,0.1,0.8
	c-1,2.8-1.9,5.7-2.9,8.5c-0.2,0.5-0.5,0.8-0.8,1.2c-0.1,0.1-0.3,0.2-0.4,0.1C87.2,104.3,87.2,104.1,87.1,104z"/>
<path class="st0" d="M259.9,94.2c-0.2,0.5-0.4,0.9-0.5,1.3c-0.8,2.5-1.7,4.9-2.5,7.4c-0.1,0.4-0.3,0.7-0.6,1.1
	c-0.1,0.2-0.4,0.3-0.6,0.4c0-0.2-0.1-0.5-0.1-0.7c0.2-0.5,0.4-1.1,0.6-1.6c0.3-0.6,0.1-1-0.4-1.4c-0.5-0.4-0.9-1-1.1-1.6
	c-0.6-1.5-1-3-1.4-4.6c-0.1-0.2,0.1-0.5,0.2-0.8c0.2,0.2,0.6,0.3,0.7,0.5c0.5,1.5,1,3,1.4,4.5c0.1,0.2,0.1,0.5,0.2,0.6
	c0.2,0.2,0.5,0.4,0.7,0.5c0.1,0,0.4-0.3,0.5-0.6c0.5-1.4,1-2.9,1.5-4.3c0.1-0.4,0.3-0.7,0.5-1c0.1-0.1,0.4-0.2,0.6-0.2
	C259.8,93.8,259.9,94.1,259.9,94.2z"/>
<path class="st0" d="M78,94.2c-0.3,0.1-0.7,0.2-1,0.2c-0.7,0-1.4,0-2.2,0c-0.9,0-1.3,0.5-1.3,1.3c0,0.7,0.6,1.2,1.4,1.2
	c0.7,0,1.3,0,2,0c1,0,1.7,0.7,1.7,1.8c0,0.2,0,0.4,0,0.5c0,1-0.5,1.7-1.6,1.8c-1.1,0-2.1,0-3.2-0.1c-0.2,0-0.3-0.2-0.5-0.4
	c0.2-0.1,0.3-0.4,0.5-0.4c0.9-0.1,1.7,0,2.6-0.1c0.8,0,1.2-0.4,1.2-1.1c0.1-0.7-0.3-1.2-1-1.2c-0.6,0-1.3,0-1.9,0
	c-1.4,0-2.1-0.7-2.1-2.1c0-1.5,0.7-2.2,2.1-2.2c0.8,0,1.6,0,2.4,0.1c0.3,0,0.6,0.2,0.8,0.3C78,94,78,94.1,78,94.2z"/>
<path class="st0" d="M128.2,97.3c0-0.9,0-1.8,0-2.8c0-0.7,0.3-0.8,0.8-0.5c0.4,0.3,0.6,0.2,1,0c0.6-0.2,1.2-0.5,1.8-0.6
	c1.4-0.1,2.5,1,2.5,2.4c0,1.4,0,2.7,0,4.1c0,0.1,0,0.2,0,0.3c-0.2,0.2-0.3,0.4-0.5,0.6c-0.1-0.2-0.4-0.4-0.4-0.6c0-1.3,0-2.6,0-3.8
	c0-0.4,0-0.7-0.1-1.1c-0.2-0.7-0.8-1-1.4-0.9c-0.7,0.1-1.5,0.3-2.1,0.6c-0.3,0.2-0.5,0.7-0.5,1.1c-0.1,1.3,0,2.6,0,3.8
	c0,0.4,0,0.8-0.5,0.8c-0.5,0-0.5-0.4-0.5-0.8C128.2,99.1,128.2,98.2,128.2,97.3C128.2,97.3,128.2,97.3,128.2,97.3z"/>
<path class="st0" d="M170.2,97.3c0-0.9,0-1.8,0-2.7c0-0.3,0.2-0.5,0.3-0.8c0.2,0.1,0.4,0.2,0.6,0.2c0.3,0,0.6,0,0.9-0.1
	c0.7-0.2,1.4-0.5,2.1-0.5c1,0,2,0.8,2,1.9c0.1,1.6,0.1,3.3,0,4.9c0,0.2-0.3,0.3-0.4,0.5c-0.2-0.2-0.4-0.4-0.4-0.6c0-1.3,0-2.6,0-3.9
	c0-1.6-0.9-2.3-2.5-1.8c-0.2,0.1-0.4,0.1-0.6,0.2c-0.8,0.2-1.2,0.8-1.2,1.6c0,1.3,0,2.5,0,3.8c0,0.3-0.3,0.5-0.4,0.8
	c-0.2-0.3-0.4-0.5-0.5-0.8C170.1,99.1,170.2,98.2,170.2,97.3C170.2,97.3,170.2,97.3,170.2,97.3z"/>
<path class="st0" d="M198,97.3c0-0.9,0-1.9,0-2.8c0-0.7,0.2-0.8,0.8-0.5c0.4,0.3,0.8,0.2,1.2,0c2.3-1.4,4.2,0.2,4.1,2.2
	c-0.1,1.3,0,2.6,0,3.9c0,0.3-0.3,0.7-0.4,0.7c-0.5,0.1-0.5-0.4-0.5-0.7c0-1.3,0-2.7,0-4c0-1.3-0.9-2-2.2-1.6c-2.2,0.6-2,0.6-2,2.7
	c0,0.8,0,1.7,0,2.5c0,0.2,0,0.4,0,0.6c-0.1,0.2-0.3,0.4-0.5,0.6c-0.1-0.2-0.4-0.4-0.4-0.6C197.9,99.3,198,98.3,198,97.3
	C198,97.3,198,97.3,198,97.3z"/>
<path class="st0" d="M61,97.8c0-0.8,0-1.6,0-2.4c0-0.4-0.1-0.8-0.6-0.9c-0.2,0-0.4-0.3-0.4-0.4c0-0.2,0.2-0.4,0.4-0.5
	c0.7-0.3,0.7-0.8,0.7-1.4c-0.1-1.7,1.1-2.7,2.7-2.2c0.2,0.1,0.4,0.3,0.5,0.5c-0.2,0.1-0.4,0.3-0.6,0.3c-1.4,0.1-1.9,0.5-1.7,1.9
	c0.1,0.5,0.3,0.8,0.9,0.8c0.4,0,1-0.2,1.1,0.5c0,0.6-0.6,0.5-1,0.5c-0.6,0-0.9,0.3-0.9,0.9c0,1.5,0,2.9,0,4.4c0,0.2,0.1,0.4,0,0.5
	c-0.2,0.2-0.4,0.3-0.6,0.5c-0.1-0.2-0.4-0.4-0.4-0.5C61,99.5,61,98.6,61,97.8z"/>
<path class="st0" d="M238.9,97.3c0-0.9,0-1.8,0-2.7c0-0.7,0.2-0.8,0.9-0.5c0.2,0.1,0.6,0.1,0.8,0c0.3-0.1,0.6-0.3,0.9-0.4
	c1.7-0.8,3.5,0.4,3.5,2.2c0,1.4,0,2.8-0.1,4.2c0,0.2-0.3,0.5-0.4,0.7c-0.2-0.2-0.4-0.5-0.4-0.7c0-1.2,0-2.5,0-3.7
	c0-1.7-1-2.5-2.6-1.9c-0.1,0.1-0.3,0.1-0.5,0.1c-0.8,0.2-1.2,0.6-1.2,1.5c0,1,0,2.1,0,3.1c0,0.4,0,0.7-0.1,1.1
	c0,0.2-0.3,0.3-0.4,0.5c-0.1-0.2-0.4-0.3-0.4-0.5C238.9,99.3,238.9,98.3,238.9,97.3C238.9,97.3,238.9,97.3,238.9,97.3z"/>
<path class="st0" d="M249.3,101c-2.1,0-2.7-0.6-2.9-2.6c-0.1-1.1,0-2.2,0.2-3.3c0.1-0.9,0.9-1.6,1.9-1.6c0.8,0,1.7,0.1,2.5,0.2
	c0.2,0,0.3,0.3,0.5,0.5c-0.2,0.1-0.4,0.2-0.6,0.2c-0.8,0-1.7-0.1-2.5,0c-0.3,0-0.8,0.4-0.9,0.7c-0.6,1.2-0.4,2.5-0.1,3.8
	c0.2,0.7,0.7,1,1.4,1c0.7,0,1.5-0.1,2.2-0.1c0.2,0,0.4,0.2,0.7,0.3c-0.2,0.2-0.3,0.5-0.5,0.5C250.6,100.9,250,101,249.3,101z"/>
<path class="st0" d="M139.5,100.5c-0.2,0.6-0.7,0.6-1.1,0.5c-0.5-0.2-1.1-0.5-1.3-1c-0.3-0.6-0.4-1.4-0.4-2.1c-0.1-0.8,0-1.6,0-2.4
	c0-0.5-0.1-0.8-0.6-0.9c-0.2,0-0.3-0.3-0.5-0.4c0.1-0.1,0.2-0.3,0.4-0.4c0.6-0.3,0.8-0.7,0.9-1.3c0-0.2,0.3-0.5,0.5-0.7
	c0.1,0.3,0.3,0.5,0.3,0.8c0,0.8,0.2,1,1,1c0.1,0,0.1,0,0.2,0c0.3,0.2,0.6,0.3,0.8,0.5c-0.3,0.2-0.6,0.4-0.9,0.4
	c-0.9,0-1.2,0.3-1.2,1.1c0,1,0,2,0,3c0,0.8,0.5,1.3,1.2,1.5C139,100.2,139.3,100.4,139.5,100.5z"/>
<path class="st0" d="M49.9,95.5c0-1.3,0-2.6,0-3.8c0-0.3,0-0.8,0.5-0.7c0.2,0,0.4,0.5,0.4,0.7c0,2.3,0,4.6,0,6.9
	c0,1.3,0.2,1.5,1.6,1.5c1,0,2,0,3,0c0.2,0,0.4,0.3,0.6,0.4c-0.2,0.2-0.4,0.5-0.6,0.5c-1.5,0-2.9,0-4.4-0.1c-0.6,0-1.1-0.7-1.1-1.5
	C49.9,98.1,49.9,96.8,49.9,95.5C49.9,95.5,49.9,95.5,49.9,95.5z"/>
<path class="st0" d="M155.5,97.1c0-0.4,0-0.9,0-1.3c0-0.6,0-1.1-0.7-1.4c-0.5-0.2-0.3-0.6,0-0.7c0.7-0.2,0.8-0.7,0.9-1.4
	c0-0.2,0.3-0.4,0.4-0.6c0.1,0.2,0.3,0.4,0.4,0.6c0.1,1,0.2,1.1,1.2,1.1c0.4,0,0.9,0,0.8,0.5c0,0.2-0.6,0.4-0.9,0.5
	c-0.8,0-1,0.2-1.1,1c0,1,0,2,0,3c0,1,0.3,1.3,1.2,1.7c0.2,0.1,0.4,0.4,0.6,0.5c-0.2,0.1-0.5,0.3-0.7,0.3c-1.1,0-1.8-0.7-2-2
	C155.5,98.3,155.5,97.7,155.5,97.1C155.5,97.1,155.5,97.1,155.5,97.1z"/>
<path class="st0" d="M81.5,91.7c0,0.3,0.1,0.7,0.1,1c0,0.5,0.2,0.8,0.7,0.8c0.3,0,0.6,0,0.9,0.1c0.2,0,0.4,0.3,0.4,0.4
	c0,0.1-0.2,0.3-0.4,0.4c0,0-0.1,0-0.2,0c-1.5,0.1-1.5,0.2-1.5,1.6c0,0.8,0,1.6,0,2.4c0,0.9,0.3,1.2,1.1,1.6c0.2,0.1,0.4,0.4,0.6,0.6
	c-0.3,0.1-0.6,0.3-0.9,0.3c-1-0.1-1.6-0.6-1.7-1.6c-0.1-1.1-0.1-2.1-0.1-3.2c0-0.7,0-1.4-0.9-1.6c-0.4-0.1-0.4-0.5,0-0.7
	c0.7-0.3,1.1-0.8,1.1-1.5c0-0.2,0.2-0.4,0.4-0.6C81.4,91.7,81.5,91.7,81.5,91.7z"/>
<path class="st0" d="M205,94.2c0.3-0.2,0.5-0.4,0.7-0.5c0.6-0.3,0.9-0.7,0.9-1.4c0-0.2,0.2-0.4,0.3-0.6c0.1,0.2,0.3,0.4,0.3,0.6
	c0.1,1.2,0.1,1.1,1.4,1.2c0.3,0,0.5,0.3,0.7,0.5c-0.3,0.2-0.5,0.5-0.8,0.5c-1.1,0-1.3,0.1-1.3,1.2c0,0.8,0,1.7,0,2.5
	c0,1,0.3,1.6,1.3,2c0.2,0.1,0.4,0.4,0.6,0.5c-0.3,0.1-0.5,0.3-0.8,0.2c-1,0-1.8-0.8-1.9-1.8c-0.1-1-0.1-2,0-3c0-0.8,0-1.6-1-1.8
	C205.3,94.4,205.2,94.3,205,94.2z"/>
<path class="st0" d="M93.1,94.8c0-1.1,0-2.3,0-3.4c0-0.2,0-0.4,0-0.5c0.1-0.3,0.3-0.5,0.5-0.7c0.2,0.2,0.4,0.5,0.5,0.7
	c0,1.1,0,2.2,0,3.4c0,1.4,0,2.9,0,4.3c0,1,0.3,1.3,1.2,1.7c0.2,0.1,0.4,0.3,0.6,0.5c-0.2,0.1-0.5,0.3-0.7,0.3c-1,0-1.8-0.6-1.9-1.6
	c-0.1-1.5,0-3,0-4.5C93.1,94.8,93.1,94.8,93.1,94.8z"/>
<path class="st0" d="M148.6,97.2c0-0.9,0-1.8,0-2.8c0-0.2,0.1-0.4,0.2-0.6c0.2,0.1,0.4,0.1,0.6,0.2c0.4,0,0.8,0.1,1.1,0
	c0.6-0.1,1.3-0.4,1.9-0.5c0.3,0,0.6,0.3,0.8,0.4c-0.3,0.2-0.5,0.4-0.8,0.5c-0.6,0.2-1.3,0.2-2,0.4c-0.6,0.2-1,0.7-1,1.4
	c0,1.3,0,2.6,0,3.9c0,0.3,0,0.7-0.5,0.8c-0.5,0-0.5-0.4-0.5-0.7C148.6,99.2,148.6,98.2,148.6,97.2C148.6,97.2,148.6,97.2,148.6,97.2
	z"/>
<path class="st0" d="M35.1,95.8c0-1.4,0-2.8,0-4.2c0-0.2,0.2-0.5,0.3-0.7c0.1,0.2,0.4,0.5,0.4,0.7c0,2.4,0,4.9,0,7.3
	c0,0.4,0.1,0.9,0,1.3c0,0.2-0.3,0.5-0.5,0.7c-0.1-0.2-0.3-0.4-0.3-0.6C35.1,98.7,35.1,97.2,35.1,95.8C35.1,95.8,35.1,95.8,35.1,95.8
	z"/>
<path class="st0" d="M57.5,97.2c0-0.9,0-1.8,0-2.8c0-0.2,0.2-0.5,0.3-0.7c0.2,0.2,0.5,0.5,0.5,0.7c0.1,0.9,0,1.7,0,2.6c0,1,0,2,0,3
	c0,0.4,0,0.8-0.5,0.8c-0.2,0-0.4-0.5-0.4-0.8C57.4,99.1,57.5,98.1,57.5,97.2C57.5,97.2,57.5,97.2,57.5,97.2z"/>
<path class="st0" d="M168.3,97.3c0,0.9,0,1.8,0,2.8c0,0.2-0.3,0.5-0.4,0.7c-0.1-0.2-0.4-0.5-0.4-0.7c0-1.9,0-3.9,0-5.8
	c0-0.2,0.2-0.4,0.3-0.6c0.2,0.2,0.4,0.4,0.5,0.6C168.3,95.4,168.3,96.4,168.3,97.3C168.3,97.3,168.3,97.3,168.3,97.3z"/>
<path class="st0" d="M58,91c0.3,0.4,0.6,0.7,0.5,0.9c0,0.2-0.4,0.4-0.6,0.6c-0.2-0.2-0.5-0.4-0.6-0.7C57.4,91.7,57.7,91.4,58,91z"/>
<path class="st0" d="M167.9,91.1c0.3,0.4,0.5,0.6,0.5,0.8c0,0.2-0.3,0.4-0.5,0.6c-0.2-0.2-0.5-0.4-0.5-0.6
	C167.3,91.7,167.6,91.5,167.9,91.1z"/>
<path class="st0" d="M394,46.1c-0.9-3.7-3.3-6.4-7.3-6.9c-1.6-0.2-3.3-0.2-4.9-0.2c-4.5,0-9,0-13.5,0c-0.7,0-0.9,0.2-0.9,0.9
	c0,6.4,0,12.9,0,19.3c0,0,0,0,0,0c0,6.4,0,12.9,0,19.3c0,0.8,0.3,1,1.1,1c1,0,1.9,0,2.9,0c0.8,0,1.1-0.2,1.1-1c0-1.3,0-2.6,0-3.8
	c0-3.7,0-7.5,0-11.2c0-1,0.4-1.3,1.3-1c0.2,0.1,0.5,0.1,0.7,0.1c2.5,0.2,5,0.5,7.4,0.6c1.7,0.1,3.5,0.2,5.2,0c2.6-0.3,4.6-1.6,5.9-4
	c0.8-1.6,1.3-3.2,1.4-5C394.5,51.5,394.6,48.8,394,46.1z M389.2,54.6c-0.4,2.5-2.3,4.1-4.9,4.1c-3.6,0-7.2,0-10.8,0
	c-0.9,0-1.1-0.2-1.1-1.1c0-2.2,0-4.3,0-6.5c0,0,0,0,0,0c0-2.1,0-4.1,0-6.2c0-1,0.2-1.2,1.2-1.2c3.6,0,7.2,0,10.8,0
	c1.7,0,3.1,0.6,4,2.1c0.3,0.6,0.6,1.3,0.8,2C389.6,50.1,389.5,52.3,389.2,54.6z"/>
</svg>
